<?xml version="1.0" encoding="UTF-8"?>
<svg id="Layer_2" data-name="Layer 2" xmlns="http://www.w3.org/2000/svg" viewBox="0 0 95.51 64.45">
  <defs>
    <style>
      .cls-1 {
        fill: #00aeef;
      }
    </style>
  </defs>
  <g id="Layer_1-2" data-name="Layer 1">
    <g>
      <path class="cls-1" d="M46.15,34.27c-3.47,0-6.29,2.82-6.29,6.29s2.82,6.29,6.29,6.29,6.29-2.82,6.29-6.29-2.82-6.29-6.29-6.29ZM46.15,43.54c-1.65,0-2.99-1.34-2.99-2.99s1.34-2.99,2.99-2.99,2.98,1.34,2.98,2.99-1.34,2.99-2.98,2.99Z"/>
      <path class="cls-1" d="M46.15,30.15c2.95,0,5.36-2.4,5.36-5.36s-2.4-5.36-5.36-5.36-5.36,2.4-5.36,5.36,2.4,5.36,5.36,5.36ZM46.15,22.74c1.14,0,2.06.92,2.06,2.06s-.92,2.06-2.06,2.06-2.06-.92-2.06-2.06.92-2.06,2.06-2.06Z"/>
      <path class="cls-1" d="M95.06,6.24c-.62-.64-1.65-.66-2.29-.04l-14.48,14.04-10.98,8.53c-.6.47-1.28.39-1.62.09-.27-.24-.27-.87.15-1.37l5.51-6.62c.37-.04.74-.19,1.02-.48.35-.36.5-.83.46-1.29l1.18-1.42,1.46,1.46c.32.32.73.47,1.14.47s.83-.16,1.14-.47c.63-.63.63-1.66,0-2.29l-1.55-1.55,12.91-12.51c.64-.62.66-1.65.04-2.29-.62-.64-1.65-.66-2.29-.04l-13.92,13.49c-.07.05-.14.1-.21.17-.08.08-.16.18-.22.27l-1.83,2.2c-1.99-1.63-4.21-2.94-6.56-3.88.19-.59.32-1.22.35-1.94.14-3.14-1.78-5.31-5.1-5.81-.32-.05-7.84-1.29-11.8-1.29-.48,0-.93.02-1.31.06-3.33.36-12.67,4.8-13.72,5.31-.06.03-.12.06-.18.1l-.94.61c-6.67,4.29-13.09,8.59-14.89,11.11L.25,46.82c-.48.77-.25,1.79.52,2.27s1.79.25,2.27-.52l16.23-25.88c1.62-2.26,10.56-8.01,13.93-10.17l.86-.55c3.8-1.82,10.49-4.74,12.55-4.96.27-.03.6-.04.96-.04,3.68,0,11.19,1.23,11.29,1.25,2.12.32,2.36,1.39,2.32,2.41-.08,1.83-.77,2.4-2.99,2.53l-10.45.03c-.2,0-.4.04-.59.11-.37.14-9.13,3.56-12.43,7.79-3.13,4.02-6.29,13.08-3.52,20.62,1.43,3.91,5.11,8.98,14.48,10.95,2.8.59,4.71,1.79,5.52,3.48.79,1.65.37,3.47-.23,4.85-6.55-2.25-12.99-3.49-18.18-3.5-5.34,0-9.14-1.9-11.65-3.15l-.1-.05c-.67-.34-1.48-.18-1.97.38l-3.18,3.6c-.6.68-.54,1.73.14,2.33.68.6,1.73.54,2.33-.14l2.34-2.65c2.68,1.3,6.71,2.99,12.08,2.99,4.93.01,11.15,1.24,17.57,3.48.37.12.72.17,1.03.17,1.12,0,1.88-.65,2.25-1.38.73-1.44,1.14-2.84,1.26-4.19.11,0,.21,0,.33,0,13.28,0,24.08-10.84,24.08-24.17,0-3.35-.67-6.58-1.99-9.63l3.01-2.34s.09-.08.13-.12l14.54-14.1c.64-.62.66-1.65.04-2.29ZM76.02,34.72c0,11.51-9.32,20.87-20.78,20.87-.26,0-.49,0-.71-.01-.1-.29-.21-.57-.34-.85-.88-1.85-2.96-4.26-7.81-5.28-6.34-1.33-10.39-4.31-12.06-8.86-2.31-6.29.44-14.14,3.03-17.46,2.18-2.8,8.23-5.63,10.73-6.63l10.23-.03c1.52-.09,2.76-.43,3.72-1.01,2.36.81,4.59,2.06,6.56,3.68l-5.23,6.29c-.95,1.14-1.27,2.58-.98,3.85-.42-.47-1.1-.68-1.75-.47-1.11.36-2.27-.02-2.54-.84-.27-.82.43-1.82,1.54-2.19.6-.2,1.2-.19,1.71.02.84.35,1.81-.05,2.16-.89.35-.84-.05-1.81-.89-2.16-1.24-.52-2.66-.56-4.01-.11-2.85.94-4.49,3.79-3.64,6.35.66,2,2.64,3.25,4.84,3.25.61,0,1.25-.1,1.87-.3.72-.24,1.15-.92,1.13-1.63.19.34.42.67.72.95.8.73,1.82,1.1,2.88,1.1s2.04-.34,2.91-1.01l5.34-4.14c.93,2.4,1.4,4.93,1.4,7.53Z"/>
      <path class="cls-1" d="M62.84,36.12c-3.98,0-7.21,3.24-7.21,7.21s3.24,7.21,7.21,7.21,7.21-3.24,7.21-7.21-3.24-7.21-7.21-7.21ZM62.84,47.25c-2.16,0-3.91-1.75-3.91-3.91s1.75-3.91,3.91-3.91,3.91,1.75,3.91,3.91-1.75,3.91-3.91,3.91Z"/>
    </g>
  </g>
</svg>