<?xml version="1.0" encoding="UTF-8"?>
<svg id="Layer_2" data-name="Layer 2" xmlns="http://www.w3.org/2000/svg" viewBox="0 0 88.88 92.85">
  <defs>
    <style>
      .cls-1 {
        fill: #00aeef;
      }
    </style>
  </defs>
  <g id="Layer_1-2" data-name="Layer 1">
    <g>
      <path class="cls-1" d="M39.37,2.91h6.13c2.99,0,5.41,2.43,5.41,5.41v16.95c0,.8.65,1.45,1.45,1.45s1.45-.65,1.45-1.45V8.32c0-4.59-3.73-8.32-8.32-8.32h-6.13c-.8,0-1.45.65-1.45,1.45s.65,1.45,1.45,1.45Z"/>
      <path class="cls-1" d="M57.18,11.41h14.18c1.79,0,3.24,1.45,3.24,3.24v11.58c0,.8.65,1.45,1.45,1.45s1.45-.65,1.45-1.45v-11.58c0-3.39-2.76-6.15-6.15-6.15h-14.18c-.8,0-1.45.65-1.45,1.45s.65,1.45,1.45,1.45Z"/>
      <path class="cls-1" d="M13.55,41.37v10.18c0,.59.35,1.12.9,1.34.18.07.37.11.56.11.38,0,.75-.15,1.03-.43l11.63-11.63c.57-.57.57-1.49,0-2.06-.57-.57-1.49-.57-2.06,0l-9.15,9.15v-8.12c0-.8-.65-1.45-1.45-1.45h-6.68c-2.99,0-5.41-2.43-5.41-5.41V8.32c0-2.99,2.43-5.41,5.41-5.41h10.65c.8,0,1.45-.65,1.45-1.45S19.78,0,18.98,0h-10.65C3.73,0,0,3.73,0,8.32v24.73c0,4.59,3.73,8.32,8.32,8.32h5.23Z"/>
      <path class="cls-1" d="M79.65,28.03h-42.08c-5.09,0-9.23,4.14-9.23,9.23v27.98c0,5.09,4.14,9.23,9.23,9.23h20.75l12.74,12.74c.28.28.65.43,1.03.43.19,0,.38-.04.56-.11.54-.23.9-.76.9-1.34v-11.71h6.11c5.09,0,9.23-4.14,9.23-9.23v-27.98c0-5.09-4.14-9.23-9.23-9.23ZM85.97,65.24c0,3.48-2.83,6.32-6.32,6.32h-7.56c-.8,0-1.45.65-1.45,1.45v9.66l-10.68-10.68c-.27-.27-.64-.43-1.03-.43h-21.35c-3.48,0-6.32-2.83-6.32-6.32v-27.98c0-3.48,2.83-6.32,6.32-6.32h42.08c3.48,0,6.32,2.83,6.32,6.32v27.98Z"/>
      <path class="cls-1" d="M56.08,77.36h-20.4c-.39,0-.76.15-1.03.43l-10.1,10.1v-9.07c0-.8-.65-1.45-1.45-1.45h-7.23c-3.29,0-5.97-2.68-5.97-5.97v-26.74c0-.8-.65-1.45-1.45-1.45s-1.45.65-1.45,1.45v26.74c0,4.9,3.98,8.88,8.88,8.88h5.77v11.13c0,.59.35,1.12.9,1.34.18.07.37.11.56.11.38,0,.75-.15,1.03-.43l12.16-12.16h19.8c.8,0,1.45-.65,1.45-1.45s-.65-1.45-1.45-1.45Z"/>
      <path class="cls-1" d="M73.89,57.53v-2.94c0-2.98-2.42-5.4-5.4-5.4s-5.4,2.42-5.4,5.4v5.45c0,2.77-2.26,5.03-5.03,5.03s-5.03-2.26-5.03-5.03v-3.91c4.93-.62,8.76-4.83,8.76-9.93v-8.02c0-2.02-1.57-3.69-3.55-3.84-.34-.44-.88-.72-1.47-.72-1.03,0-1.87.84-1.87,1.87s.84,1.87,1.87,1.87c.51,0,.97-.2,1.31-.53.69.07,1.23.65,1.23,1.35v8.02c0,4.14-3.37,7.51-7.51,7.51s-7.51-3.37-7.51-7.51v-8.02c0-.7.53-1.27,1.2-1.35.34.33.8.53,1.3.53,1.03,0,1.87-.84,1.87-1.87s-.84-1.87-1.87-1.87c-.6,0-1.13.28-1.48.72-1.97.17-3.52,1.83-3.52,3.84v8.02c0,5.1,3.83,9.31,8.76,9.93v3.91c0,4.15,3.38,7.53,7.53,7.53s7.53-3.38,7.53-7.53v-5.45c0-1.6,1.3-2.9,2.9-2.9s2.9,1.3,2.9,2.9v2.91c-2.15.54-3.76,2.49-3.76,4.8,0,2.73,2.22,4.95,4.95,4.95s4.95-2.22,4.95-4.95c0-2.28-1.55-4.2-3.65-4.78ZM72.59,64.51c-1.22,0-2.21-.99-2.21-2.21s.99-2.21,2.21-2.21,2.21.99,2.21,2.21-.99,2.21-2.21,2.21Z"/>
      <path class="cls-1" d="M9.94,14.02c0,1.5.37,3.06,1.05,4.66h-1.69c-.71,0-1.28.57-1.28,1.28s.57,1.28,1.28,1.28h3.2c.02.2.07.4.19.58,2.66,4.01,6.99,8.01,11.19,11.89.25.23.56.34.87.34s.62-.11.87-.34c4.1-3.79,8.35-7.71,11.03-11.66.16-.24.21-.51.2-.77h3.49c.71,0,1.28-.57,1.28-1.28s-.57-1.28-1.28-1.28h-1.85c.69-1.61,1.06-3.19,1.06-4.69,0-4.15-3.61-7.53-8.05-7.53-3.29,0-5.23,1.35-6.76,3.51-1.53-2.16-3.47-3.51-6.77-3.51-4.44,0-8.05,3.38-8.05,7.53ZM24.75,31.03c-3.49-3.23-6.98-6.55-9.32-9.77h2.49l.97,2.33c.21.49.69.81,1.23.79.53-.02,1-.37,1.17-.87l.7-2.08,1.46,5.2c.16.55.66.94,1.24.94,0,0,.01,0,.02,0,.58,0,1.09-.41,1.23-.97l1.74-6.98.24.77c.17.54.66.9,1.23.9h4.9c-2.35,3.23-5.82,6.53-9.3,9.74ZM23.62,13.07c.22.41.66.67,1.13.67h0c.47,0,.9-.26,1.13-.67,1.65-3.04,3.02-4.01,5.64-4.01,3.02,0,5.48,2.23,5.48,4.97,0,1.31-.36,2.72-1.06,4.2-.08.16-.12.33-.12.5h-5.71l-1.32-4.26c-.17-.55-.72-.9-1.26-.9-.58.02-1.07.41-1.21.97l-1.68,6.73-1.27-4.54c-.15-.54-.64-.92-1.2-.94-.56.01-1.07.34-1.25.87l-.94,2.8c-.21-.46-.67-.76-1.17-.76h-5.08c-.02-.14-.04-.28-.11-.42-.72-1.49-1.09-2.92-1.09-4.24,0-2.74,2.46-4.97,5.48-4.97,2.62,0,3.99.98,5.63,4.01Z"/>
    </g>
  </g>
</svg>