<?xml version="1.0" encoding="UTF-8"?><svg id="Layer_1" xmlns="http://www.w3.org/2000/svg" viewBox="0 0 49.99 49.99"><defs><style>.cls-1{fill:#1dafec;}</style></defs><path class="cls-1" d="M44.64,5.35h-5.35V1.76c0-.99-.77-1.76-1.76-1.76s-1.76,.77-1.76,1.76v3.59H14.29V1.76c0-.99-.77-1.76-1.76-1.76s-1.76,.77-1.76,1.76v3.59H5.35C2.39,5.35,0,7.75,0,10.7V44.64c0,2.96,2.39,5.35,5.35,5.35H44.64c2.96,0,5.35-2.39,5.35-5.35V10.7c0-2.96-2.39-5.35-5.35-5.35Zm1.76,39.29c0,.99-.77,1.76-1.76,1.76H5.35c-.99,0-1.76-.77-1.76-1.76V21.4H46.47v23.24h-.07Zm0-26.76H3.59v-7.18c0-.99,.77-1.76,1.76-1.76h5.35v3.59c0,.99,.77,1.76,1.76,1.76s1.76-.77,1.76-1.76v-3.59h21.4v3.59c0,.99,.77,1.76,1.76,1.76s1.76-.77,1.76-1.76v-3.59h5.35c.99,0,1.76,.77,1.76,1.76v7.18h.14Z"/><path class="cls-1" d="M20.14,42.32c.7,.7,1.83,.7,2.53,0l14.29-14.29c.7-.7,.63-1.83-.07-2.53-.7-.63-1.76-.63-2.46,0l-13.03,13.03-5.91-5.91c-.7-.7-1.83-.63-2.53,.07-.63,.7-.63,1.76,0,2.46l7.18,7.18Z"/></svg>