<?xml version="1.0" encoding="UTF-8"?>
<svg id="Layer_2" data-name="Layer 2" xmlns="http://www.w3.org/2000/svg" viewBox="0 0 78.41 92.31">
  <defs>
    <style>
      .cls-1 {
        fill: #00aeef;
      }
    </style>
  </defs>
  <g id="Layer_2-2" data-name="Layer 2">
    <g id="Layer_2-2" data-name="Layer 2-2">
      <g>
        <path class="cls-1" d="M75.62,28.34h-17.14c-1.59.3-2.79,1.69-2.79,3.29,0,1.4.9,2.69,2.19,3.19v48.22c0,5.08,4.09,9.27,9.17,9.27s9.17-4.19,9.17-9.27v-48.22c1.3-.5,2.19-1.69,2.19-3.09,0-1.59-1.2-3.09-2.79-3.39ZM73.23,83.03c0,3.39-2.79,6.18-6.18,6.18s-6.18-2.79-6.18-6.18v-31.97h12.36v31.97ZM73.23,48.07h-12.26v-13.06h12.26v13.06ZM75.13,31.92h-16.05c-.2,0-.3-.2-.3-.3,0-.2.1-.3.3-.3h16.05c.2,0,.3.1.3.3s-.1.3-.3.3Z"/>
        <path class="cls-1" d="M54.1,84.16H4.93c-.88,0-1.63-.92-1.63-2.01V14.46c0-1.09.75-2.01,1.63-2.01h9.26c.91,0,1.65-.74,1.65-1.65s-.74-1.65-1.65-1.65H4.93c-2.72,0-4.93,2.38-4.93,5.31v67.68c0,2.93,2.21,5.31,4.93,5.31h49.17c.91,0,1.65-.74,1.65-1.65s-.74-1.65-1.65-1.65h0Z"/>
        <path class="cls-1" d="M55.7,12.45h8.46c.93,0,1.71.92,1.71,2.01v9.49c0,.91.74,1.65,1.65,1.65s1.65-.74,1.65-1.65v-9.49c0-2.93-2.25-5.31-5.01-5.31h-8.46c-.91,0-1.65.74-1.65,1.65s.74,1.65,1.65,1.65Z"/>
        <path class="cls-1" d="M54.1,76.83H10.62V19.77h5.85v.17c0,.91.74,1.65,1.65,1.65h32.92c.91,0,1.65-.74,1.65-1.65v-.17h5.85v4.18c0,.91.74,1.65,1.65,1.65s1.65-.74,1.65-1.65v-5.83c0-.91-.74-1.65-1.65-1.65h-7.5v-2.01c0-3.93-3.2-7.13-7.13-7.13h-2.17c-.77-4.16-4.43-7.33-8.8-7.33s-8.05,3.16-8.82,7.33h-2.17c-3.93,0-7.13,3.2-7.13,7.13v2.01h-7.5c-.91,0-1.65.74-1.65,1.65v60.36c0,.91.74,1.65,1.65,1.65h45.13c.91,0,1.65-.74,1.65-1.65s-.74-1.65-1.65-1.65ZM19.78,14.46c0-2.11,1.72-3.83,3.83-3.83h3.66c.91,0,1.65-.74,1.65-1.65,0-3.13,2.55-5.68,5.68-5.68s5.65,2.55,5.65,5.68c0,.91.74,1.65,1.65,1.65h3.66c2.11,0,3.83,1.72,3.83,3.83v3.83h-29.62v-3.83h.01Z"/>
        <path class="cls-1" d="M34.6,5.48c-.91,0-1.65.74-1.65,1.65v3.66c0,.91.74,1.65,1.65,1.65s1.65-.74,1.65-1.65v-3.66c0-.91-.74-1.65-1.65-1.65Z"/>
        <path class="cls-1" d="M30.28,29.76c-.64-.64-1.69-.64-2.33,0l-6.16,6.16-2.5-2.5c-.64-.64-1.69-.64-2.33,0s-.64,1.69,0,2.33l3.66,3.66c.32.32.74.48,1.17.48s.84-.16,1.17-.48l7.33-7.33c.64-.64.64-1.69,0-2.33h-.01Z"/>
        <path class="cls-1" d="M30.28,44.39c-.64-.64-1.69-.64-2.33,0l-6.16,6.16-2.5-2.5c-.64-.64-1.69-.64-2.33,0s-.64,1.69,0,2.33l3.66,3.66c.32.32.74.48,1.17.48s.84-.16,1.17-.48l7.33-7.33c.64-.64.64-1.69,0-2.33h-.01Z"/>
        <path class="cls-1" d="M27.95,59.02l-6.16,6.16-2.5-2.5c-.64-.64-1.69-.64-2.33,0s-.64,1.69,0,2.33l3.66,3.66c.32.32.74.48,1.17.48s.84-.16,1.17-.48l7.33-7.33c.64-.64.64-1.69,0-2.33-.64-.64-1.69-.64-2.33,0h-.01Z"/>
        <path class="cls-1" d="M49.2,32.94h-10.97c-.91,0-1.65.74-1.65,1.65s.74,1.65,1.65,1.65h10.97c.91,0,1.65-.74,1.65-1.65s-.74-1.65-1.65-1.65Z"/>
        <path class="cls-1" d="M49.2,47.48h-10.97c-.91,0-1.65.74-1.65,1.65s.74,1.65,1.65,1.65h10.97c.91,0,1.65-.74,1.65-1.65s-.74-1.65-1.65-1.65Z"/>
        <path class="cls-1" d="M49.2,62.01h-10.97c-.91,0-1.65.74-1.65,1.65s.74,1.65,1.65,1.65h10.97c.91,0,1.65-.74,1.65-1.65s-.74-1.65-1.65-1.65Z"/>
      </g>
    </g>
  </g>
</svg>