<?xml version="1.0" encoding="UTF-8"?>
<svg id="Layer_2" data-name="Layer 2" xmlns="http://www.w3.org/2000/svg" viewBox="0 0 92.39 94.41">
  <defs>
    <style>
      .cls-1 {
        fill: #1daeeb;
      }
    </style>
  </defs>
  <g id="Layer_2-2" data-name="Layer 2">
    <g>
      <path class="cls-1" d="M35.93,49.97h.41c1.74,0,3.29-1.01,4.05-2.64l1.13-2.4c.46-.98.39-2.11-.19-3.02-.25-.39-.57-.71-.96-.95l1.83-3.75c.5-1.02.44-2.2-.16-3.16-.59-.95-1.6-1.51-2.71-1.51h-6.68c-.6-.73-1.91-2.31-3.28-3.96-2.02-2.44-4.32-3.21-7.26-3.47,1.97-1.33,3.38-3.4,3.98-5.83l.63-2.58c.61-2.49.29-5.03-.91-7.15-1.2-2.12-3.17-3.61-5.52-4.19-.69-.17-1.39-.25-2.09-.25-4.16,0-7.8,3.01-8.86,7.33l-.63,2.58c-.6,2.45-.29,4.96.86,7.07.65,1.18,1.55,2.18,2.64,2.94h-2.11c-6.98,0-10.1,5.95-10.1,11.85,0,2.29.7,3.73,1.68,5.74.26.53.54,1.11.85,1.78l1.44,3.17c-.06.16-.09.32-.09.48v29.83c0,.79.68,1.43,1.53,1.43s1.53-.64,1.53-1.43v-26.95c.99.61,1.99.82,2.92.96l4.92,1c.01.58.18,1.14.49,1.64.59.95,1.6,1.51,2.71,1.51h6.42v5.02c0,.79.68,1.43,1.53,1.43s1.53-.64,1.53-1.43v-5.02h3.52c1.23,0,2.32-.69,2.87-1.8l2.11-4.29ZM11.67,15.76l.63-2.58c.72-2.95,3.15-5,5.91-5,.45,0,.9.05,1.35.16,3.21.79,5.06,4.15,4.2,7.65l-.63,2.58c-.42,1.71-1.4,3.15-2.76,4.05-.94.62-2.02.96-3.13.96-.46,0-.92-.06-1.37-.17-1.56-.38-2.85-1.37-3.63-2.78-.79-1.43-.99-3.16-.57-4.87ZM15.77,50l-5.45-1.11c-1.38-.19-2.16-.39-3.47-2.34l-1.55-3.41c-.31-.68-.6-1.28-.89-1.87-.88-1.8-1.37-2.8-1.37-4.39,0-4.06,1.85-8.8,7.05-8.8h10.64c3.34.14,4.86.73,6.29,2.45l1.67,2.01h-2.36c-1.22,0-2.32.69-2.87,1.8l-4.39,8.94-3.5-1.25c-1.2-.44-1.65-.78-2.15-2.04l-1.68-4.19c-.23-.58-.79-.96-1.42-.96-.19,0-.39.04-.57.11-.78.31-1.16,1.2-.85,1.98l1.68,4.19c.91,2.27,2.18,3.13,3.95,3.78l3.19,1.13-1.94,3.95ZM31.09,52.92c-.03.05-.07.09-.13.09h-13s-.07,0-.12-.07c-.03-.04-.05-.11,0-.2l8.37-17.04c.03-.06.08-.09.13-.09h13s.07,0,.12.07c.04.06.04.13,0,.2l-2.28,4.66h-3.59c-.31,0-.62.11-.86.3-.16.13-4.02,3.21-3.64,7.85.06.72.67,1.29,1.4,1.29h2.05l-1.45,2.95ZM31.94,47.17c.32-1.83,1.56-3.23,2.19-3.84h4.73s.07.03.11.08c.06.1.07.22.02.33l-1.13,2.4c-.3.64-.88,1.03-1.52,1.03h-4.4Z"/>
      <path class="cls-1" d="M66.6,62.19c-.84-.18-1.69.36-1.88,1.21-.18.85.36,1.69,1.21,1.88,10.17,2.2,16.51,9.21,16.95,18.75l.34,7.31c.04.85.74,1.51,1.58,1.51.02,0,.05,0,.07,0,.87-.04,1.55-.78,1.5-1.65l-.34-7.31c-.51-11.06-7.78-19.17-19.44-21.69Z"/>
      <path class="cls-1" d="M48.4,76.15c-.81-.31-1.73.11-2.04.92-.64,1.69-1.25,2.48-1.97,3.4-.37.48-.79,1.02-1.23,1.7-2.01,3.15-1.82,8.66,1.67,11.83.3.27.68.41,1.06.41.43,0,.86-.17,1.17-.52.59-.65.54-1.65-.11-2.23-2.21-2.01-2.42-5.77-1.13-7.79.35-.55.69-.99,1.05-1.45.8-1.03,1.63-2.09,2.44-4.23.31-.82-.11-1.73-.92-2.04Z"/>
      <path class="cls-1" d="M72.53,42.86c-1.82-5.4-6.92-9.3-12.92-9.3-7.52,0-13.64,6.12-13.64,13.64v2.47c0,5.6,3.39,10.41,8.23,12.51-.2-.04-.4-.04-.61,0-11.66,2.52-18.93,10.63-19.44,21.69l-.34,7.31c-.04.87.63,1.61,1.5,1.65.02,0,.05,0,.08,0,.84,0,1.54-.66,1.58-1.51l.34-7.31c.44-9.54,6.78-16.55,16.95-18.75.85-.18,1.39-1.03,1.21-1.88-.09-.43-.35-.78-.7-1,1.51.57,3.13.9,4.84.9,6.15,0,11.36-4.1,13.05-9.7.77,1.47,1.74,2.84,2.95,4.04,3.12,3.12,7.29,4.83,11.65,4.83.57,0,1.14-.03,1.72-.09.74-.08,1.33-.67,1.41-1.41.51-4.97-1.21-9.84-4.74-13.36-3.46-3.46-8.23-5.18-13.12-4.75ZM70.09,49.67c0,5.78-4.7,10.48-10.48,10.48s-10.48-4.7-10.48-10.48v-2.47c0-5.78,4.7-10.48,10.48-10.48s10.48,4.7,10.48,10.48v2.47ZM87.26,59.32c-3.53,0-6.9-1.38-9.42-3.9-2.53-2.53-3.92-5.92-3.9-9.47h.05c3.53,0,6.9,1.38,9.42,3.9s3.92,5.92,3.9,9.47h-.05Z"/>
      <path class="cls-1" d="M74.66,81.93c-.87,0-1.58.71-1.58,1.58v8.84c0,.87.71,1.58,1.58,1.58s1.58-.71,1.58-1.58v-8.84c0-.87-.71-1.58-1.58-1.58Z"/>
      <path class="cls-1" d="M90.79,25.62h-7.26c-.43,0-.84.17-1.14.47l-7.29,7.35v-6.23c0-.88-.72-1.6-1.6-1.6h-21.25c-2.73,0-4.96-2.22-4.96-4.96V1.6c0-.88-.72-1.6-1.6-1.6s-1.6.72-1.6,1.6v19.07c0,4.5,3.66,8.16,8.16,8.16h19.66v8.52c0,.65.39,1.23.99,1.48.2.08.4.12.61.12.42,0,.83-.16,1.14-.47l9.55-9.64h6.59c.88,0,1.6-.72,1.6-1.6s-.72-1.6-1.6-1.6Z"/>
      <path class="cls-1" d="M58.68,14.62h.56c1.18,0,2.13-.95,2.13-2.13s-.95-2.13-2.13-2.13h-.56c-1.18,0-2.13.95-2.13,2.13s.95,2.13,2.13,2.13Z"/>
      <path class="cls-1" d="M83.11,14.62h.56c1.18,0,2.13-.95,2.13-2.13s-.95-2.13-2.13-2.13h-.56c-1.18,0-2.13.95-2.13,2.13s.95,2.13,2.13,2.13Z"/>
      <path class="cls-1" d="M70.89,14.62h.56c1.18,0,2.13-.95,2.13-2.13s-.95-2.13-2.13-2.13h-.56c-1.18,0-2.13.95-2.13,2.13s.95,2.13,2.13,2.13Z"/>
    </g>
  </g>
</svg>