<?xml version="1.0" encoding="UTF-8"?>
<svg id="Layer_2" data-name="Layer 2" xmlns="http://www.w3.org/2000/svg" viewBox="0 0 89.42 90.78">
  <defs>
    <style>
      .cls-1 {
        fill: #1dadeb;
      }
    </style>
  </defs>
  <g id="Layer_1-2" data-name="Layer 1">
    <g>
      <path class="cls-1" d="M17.66,27.33h5.17v5.17c0,1.2.97,2.16,2.16,2.16h5.44c1.2,0,2.16-.97,2.16-2.16v-5.17h5.17c1.2,0,2.16-.97,2.16-2.16v-5.44c0-1.2-.97-2.16-2.16-2.16h-5.17v-5.17c0-1.2-.97-2.16-2.16-2.16h-5.44c-1.2,0-2.16.97-2.16,2.16v5.17h-5.17c-1.2,0-2.16.97-2.16,2.16v5.44c0,1.2.97,2.16,2.16,2.16ZM17.93,20h7.34v-7.34h4.89v7.34h7.34v4.89h-7.34v7.34h-4.89v-7.34h-7.34v-4.89Z"/>
      <path class="cls-1" d="M56.13,62.08h7.89v-7.42h-7.89v7.42ZM58.59,57.12h2.94v2.48h-2.94v-2.48Z"/>
      <path class="cls-1" d="M56.13,52.2h7.89v-7.42h-7.89v7.42ZM58.59,47.24h2.94v2.48h-2.94v-2.48Z"/>
      <path class="cls-1" d="M56.13,71.98h7.89v-7.42h-7.89v7.42ZM58.59,67.02h2.94v2.48h-2.94v-2.48Z"/>
      <path class="cls-1" d="M56.13,42.3h7.89v-7.42h-7.89v7.42ZM58.59,37.35h2.94v2.48h-2.94v-2.48Z"/>
      <path class="cls-1" d="M16.97,47.19h7.89v-7.42h-7.89v7.42ZM19.44,42.25h2.94v2.48h-2.94v-2.48Z"/>
      <path class="cls-1" d="M16.97,66.98h7.89v-7.42h-7.89v7.42ZM19.44,62.02h2.94v2.48h-2.94v-2.48Z"/>
      <path class="cls-1" d="M16.97,57.09h7.89v-7.42h-7.89v7.42ZM19.44,52.13h2.94v2.48h-2.94v-2.48Z"/>
      <path class="cls-1" d="M31.09,66.98h7.89v-7.42h-7.89v7.42ZM33.55,62.02h2.94v2.48h-2.94v-2.48Z"/>
      <path class="cls-1" d="M31.09,47.19h7.89v-7.42h-7.89v7.42ZM33.55,42.25h2.94v2.48h-2.94v-2.48Z"/>
      <path class="cls-1" d="M31.09,57.09h7.89v-7.42h-7.89v7.42ZM33.55,52.13h2.94v2.48h-2.94v-2.48Z"/>
      <path class="cls-1" d="M67.61,42.3h7.89v-7.42h-7.89v7.42ZM70.07,37.35h2.94v2.48h-2.94v-2.48Z"/>
      <path class="cls-1" d="M67.61,71.98h7.89v-7.42h-7.89v7.42ZM70.07,67.02h2.94v2.48h-2.94v-2.48Z"/>
      <path class="cls-1" d="M67.61,62.08h7.89v-7.42h-7.89v7.42ZM70.07,57.12h2.94v2.48h-2.94v-2.48Z"/>
      <path class="cls-1" d="M67.61,52.2h7.89v-7.42h-7.89v7.42ZM70.07,47.24h2.94v2.48h-2.94v-2.48Z"/>
      <path class="cls-1" d="M87.78,87.5h-3.73V25.28c0-1.15-.93-2.08-2.08-2.08h-31.59V2.08c0-1.15-.93-2.08-2.08-2.08H7.13c-1.15,0-2.08.93-2.08,2.08v85.42H1.64c-.91,0-1.64.73-1.64,1.64s.73,1.64,1.64,1.64h7.47c.14,0,.28-.02.41-.06h70.38c.13.03.27.06.41.06h7.47c.91,0,1.64-.73,1.64-1.64s-.73-1.64-1.64-1.64ZM26.09,87.5h-5.1v-13.14h5.1v13.14ZM34.43,87.5h-5.1v-13.14h5.1v13.14ZM47.15,87.5h-9.47v-13.82c0-1.41-1.15-2.56-2.56-2.56h-14.79c-1.41,0-2.56,1.15-2.56,2.56v13.82h-9.47V3.25h38.86v84.25ZM50.38,26.45h30.44v61.05h-30.44V26.45Z"/>
    </g>
  </g>
</svg>