<?xml version="1.0" encoding="UTF-8"?>
<svg id="Layer_2" data-name="Layer 2" xmlns="http://www.w3.org/2000/svg" viewBox="0 0 82.08 80.86">
  <defs>
    <style>
      .cls-1 {
        fill: #00aeef;
      }
    </style>
  </defs>
  <g id="Layer_1-2" data-name="Layer 1">
    <path class="cls-1" d="M81.12,28.21c-.28-4.8-1.22-5.95-4.79-8.41-2.48-1.69-4.6-3.16-6.72-4.62-2.16-1.49-4.32-2.98-6.84-4.7-1.61-1.11-4.68-1.65-9.38-1.65-3.71,0-8.57.35-14.44,1.03-2.43.29-4.64.43-6.75.43-8.86,0-14.62-2.58-22.65-6.19C6.77,2.86,3.61,1.45,0,0v3.33c3.1,1.27,5.87,2.51,8.35,3.62,8.33,3.74,14.35,6.44,23.79,6.44,2.25,0,4.6-.15,7.18-.46,5.69-.66,10.42-1,14.08-1,5.25,0,7.04.69,7.63,1.1,2.52,1.72,4.67,3.21,6.83,4.69l.14.1c2.08,1.43,4.16,2.87,6.59,4.53,2.96,2.03,3.24,2.33,3.46,6.04l.86,15.25c-.63-.06-1.18-.18-1.64-.35-.17-.06-.35-.09-.53-.09-.11,0-.22.03-.32.05v-5.49c1.1-.15,1.97-1.11,1.97-2.23v-.59c0-1.22-1.05-2.26-2.28-2.26h-11.45c-1.24,0-2.25,1.01-2.25,2.26v.59c0,.16.02.31.05.45-.86-.5-1.74-.99-2.61-1.49-3.15-1.79-6.4-3.63-8.67-5.24-2.5-1.78-3.37-2.77-3.67-3.22.41-.13,1.3-.32,3.14-.32h.2c1.25.03,2.55.04,3.95.04s3-.01,4.7-.04c-.01.18,0,.37.06.55q.62,2.04-1,3.22l-.62.46c-.68.51-.83,1.47-.32,2.16.29.39.75.62,1.24.62.33,0,.65-.1.91-.3l.61-.45c2.42-1.77,3.11-2.6,2.5-5.26,1.14.64,2.15,1.26,3.19,1.9,1.64,1.02,3.34,2.07,5.61,3.19.21.11.45.16.69.16.59,0,1.12-.33,1.38-.86.38-.76.06-1.69-.7-2.07-2.15-1.06-3.78-2.07-5.37-3.06-1.67-1.03-3.39-2.1-5.73-3.24-.21-.1-.44-.16-.7-.16h0c-2.4.05-4.5.07-6.43.07-1.38,0-2.67-.01-3.92-.04h-.22c-2.72,0-5.6.28-6.28,2.37-.6,1.84.85,3.8,5,6.77,2.4,1.7,5.72,3.58,8.96,5.42,3.15,1.79,6.41,3.64,8.69,5.25,2.32,1.65,3.21,3.82,2.8,4.59-.17.32-.72.36-1.03.36-.64,0-1.45-.18-2.36-.53-8.48-3.25-23.74-5.97-31.93-7.44-1.49-.27-2.77-.49-3.76-.68-2.09-.41-3.68-1.76-5.54-3.35-1.09-.93-2.22-1.89-3.58-2.77-6.8-4.33-12.63-5.46-20.71-7.02-.29-.06-.61-.12-.9-.18v3.14c.11.02.22.04.33.06,7.73,1.49,13.32,2.57,19.62,6.58,1.19.77,2.24,1.67,3.27,2.54,2.08,1.77,4.04,3.45,6.94,4.01,1.01.19,2.3.42,3.81.69,8.09,1.44,23.16,4.13,31.36,7.28,1.26.49,2.42.73,3.43.73,2.45,0,3.46-1.39,3.78-1.99,1.31-2.44-.29-6.12-3.73-8.56-.97-.69-2.1-1.41-3.31-2.14h7.82v16.38h-6.36v-1.91c0-.85-.69-1.54-1.54-1.54s-1.54.69-1.54,1.54v22.31c0,3.48,2.81,6.31,6.26,6.31s6.26-2.83,6.26-6.31v-28.3c1.06.35,2.31.54,3.75.54h.42c.41-.02.81-.2,1.09-.5.28-.31.43-.72.41-1.14l-.95-16.94ZM73.32,74.55c0,1.78-1.43,3.22-3.18,3.22s-3.18-1.45-3.18-3.22v-17.31h6.36v17.31Z"/>
  </g>
</svg>