<?xml version="1.0" encoding="UTF-8"?>
<svg id="Layer_2" data-name="Layer 2" xmlns="http://www.w3.org/2000/svg" viewBox="0 0 550.78 574.6">
  <defs>
    <style>
      .cls-1 {
        fill: #00aeef;
      }
    </style>
  </defs>
  <g id="Layer_1-2" data-name="Layer 1">
    <g>
      <path class="cls-1" d="M515.61,282.6c-1.7-1.1-3.1-3.8-3.2-5.8-.4-6.4-.1-12.8-.2-19.2-.2-22.3.6-44.6-3.1-66.9-15.9-93.8-90.7-169.2-185.7-186.6-9.2-1.7-18.4-2.8-27.7-4.1h-39.4c-1.2.3-2.4.7-3.6.8-43.2,3.5-82.6,17.5-117.4,42.9-56.1,40.9-88.7,95.6-95.2,164.3-2.1,22.4-1,45-1.2,67.5,0,3.5-.8,5.7-4,7.8-26.7,17.1-40.9,49.3-32.5,79.5,6.8,24.3,15.7,48.3,25.9,71.5,13.6,30.9,47.1,48.3,80.6,42.4,15.2-2.7,29.9-8.8,44.7-13.8,9.1-3.1,11.8-9.6,8.4-18.7-21-56.8-42-113.5-63-170.3-3.5-9.6-9.8-12.4-19.5-9.1-4.7,1.6-9.3,3.2-14.6,5.1,0-11.6.1-22.4,0-33.2-.3-19.4,1.4-38.6,6.2-57.5C97.71,76,208.21,9.6,314.61,28.9c82.7,15,136.8,64.1,163.1,142.6,10.6,31.7,8.5,64.5,8.3,97.1,0,.3-.4.5-.9,1-4.6-1.6-9.3-3.3-14.1-4.9-9.1-3.1-15.5-.3-18.8,8.7-21.2,57.1-42.3,114.1-63.4,171.2-3.3,8.9-.1,15.1,9,18.5,7.2,2.6,14.4,5.2,22,8-1.4,3.6-2.3,6.8-3.9,9.8-5.3,10.2-12.5,31.6-18.5,41.4-3.6,5.9-9.6,8.5-17.1,8.3-13-.4-25.9-.1-38.9-.1-15.6,0-3.7-.1-14.8,0-4.8-11.3-16.1-19.3-29.2-19.3h-30.5c-17.5,0-31.7,14.2-31.7,31.7s14.2,31.7,31.7,31.7h30.5c12.8,0,23.9-7.7,28.9-18.7,26.5,0,24-.4,52.2.2,18.2.4,32.3-6.6,41.5-21.3,8.1-13.1,16.4-38.4,22.9-52.3,1.7-3.6,3.2-4.9,7.4-4.8,33.9.7,62.6-17.9,75-49.1,7.4-18.6,14.4-37.4,20.9-56.4,12-34.4-.1-69-30.6-89.6ZM78.21,292.5c18.5,50.1,36.9,99.8,55.6,150.3-4.2,1.5-7.9,2.8-11.9,4.3-18.6-50.2-37-100.1-55.6-150.3,4.2-1.5,7.8-2.8,11.9-4.3ZM96.11,452.3c-13.9-.6-25.5-5.4-34.5-14.9-4.8-5.1-9.1-11.2-11.7-17.6-7.6-18.7-14.5-37.7-21.1-56.8-6.4-18.7-2.3-35.6,10.7-50.5.9-1,2.1-1.9,3.6-3.3,17.8,47.8,35.3,95.1,53,143.1ZM297.61,552.5h-30.5c-5.3,0-9.6-4.3-9.6-9.6s4.3-9.6,9.6-9.6h30.5c5.3,0,9.6,4.3,9.6,9.6s-4.3,9.6-9.6,9.6ZM429.21,447c-3.8-1.3-7.4-2.6-11.9-4.2,18.5-50.1,36.9-99.9,55.5-150.3,4.1,1.4,7.6,2.7,11.9,4.2-18.5,50.1-36.9,99.9-55.5,150.3ZM523.11,358.9c-6.7,22-14.8,43.7-24,64.8-7.8,18.1-23.6,26.8-44.4,28.8,17.8-48.1,35.3-95.5,53.1-143.6,14.7,14.5,21.1,31.2,15.3,50Z"/>
      <path class="cls-1" d="M298.61,343.4c15.1,0,27.4-12.3,27.4-27.3v-38.6h38.6c15.1,0,27.4-12.3,27.4-27.4v-46.4c0-15.1-12.3-27.4-27.4-27.4h-38.6v-38.7c0-15.1-12.3-27.4-27.4-27.4h-46.4c-15.1,0-27.4,12.3-27.4,27.4v38.6h-38.6c-15.1,0-27.4,12.3-27.4,27.4v46.4c0,15.1,12.3,27.4,27.4,27.4h38.6v38.6c0,15.1,12.3,27.4,27.4,27.4h46.4ZM249.01,316v-62.7h-62.7c-1.8,0-3.2-1.4-3.2-3.2v-46.4c0-1.8,1.4-3.2,3.2-3.2h62.7v-62.7c0-1.8,1.4-3.2,3.2-3.2h46.4c1.8,0,3.2,1.4,3.2,3.2v62.7h62.7c1.8,0,3.2,1.4,3.2,3.2v46.4c0,1.8-1.4,3.2-3.2,3.2h-62.7v62.7c0,1.8-1.4,3.2-3.2,3.2h-46.4c-1.8,0-3.2-1.4-3.2-3.2Z"/>
    </g>
  </g>
</svg>