<?xml version="1.0" encoding="UTF-8"?>
<svg id="user" xmlns="http://www.w3.org/2000/svg" version="1.1" viewBox="0 0 23 26">
  <!-- Generator: Adobe Illustrator 29.3.1, SVG Export Plug-In . SVG Version: 2.1.0 Build 151)  -->
  <defs>
    <style>
      .st0 {
        fill: #00aeef;
      }
    </style>
  </defs>
  <path class="st0" d="M15.2,14.3c2.4-1.3,4.1-3.8,4.1-6.7,0-4.2-3.4-7.6-7.7-7.6S3.8,3.4,3.8,7.6s.5,3,1.4,4.3,1.6,1.9,2.7,2.5C3.4,15.8.2,20,0,25.1c0,.2,0,.5.2.6s.4.3.6.3h21.3c.2,0,.5-.1.6-.3s.2-.4.2-.6c-.2-5.1-3.4-9.3-7.9-10.8h0ZM5.5,7.6c0-3.3,2.7-5.9,6-5.9s6,2.7,6,5.9-2.7,5.9-6,5.9-6-2.7-6-5.9ZM1.8,24.3c.6-5.1,4.7-8.9,9.7-8.9s9.1,3.8,9.7,8.9H1.8Z"/>
</svg>