<svg width="30" height="30" viewBox="0 0 30 30" fill="none" xmlns="http://www.w3.org/2000/svg">
<g id="Icon v2">
<path id="Vector" d="M28.755 27.6297C28.755 27.5694 28.8801 12.1279 28.6048 11.8593C28.5047 11.7661 28.2983 11.6236 25.0134 9.29396C25.0134 5.92281 25.0134 6.12562 24.9633 6.00503C24.9132 5.88444 25.176 6.12562 20.4521 1.98706C20.1705 1.73491 21.2467 1.80617 5.60433 1.80617C5.43838 1.80617 5.27924 1.86392 5.1619 1.96672C5.04456 2.06952 4.97863 2.20894 4.97863 2.35432V9.29396C1.22447 11.9635 1.34961 11.8264 1.26827 12.0347C1.18693 12.243 1.22447 12.6267 1.22447 27.5694C1.22447 27.7148 1.29039 27.8542 1.40773 27.957C1.52507 28.0598 1.68422 28.1176 1.85016 28.1176C29.0991 28.1176 28.6549 28.3314 28.755 27.6297ZM2.47586 13.3722L12.2555 20.3064L2.47586 26.4731V13.3722ZM13.2879 20.9916C13.7926 21.2841 14.3845 21.4401 14.9897 21.4401C15.595 21.4401 16.1868 21.2841 16.6916 20.9916L26.1959 27.0213H3.78356L13.2879 20.9916ZM17.724 20.2899L27.5036 13.3722V26.4731L17.724 20.2899ZM20.621 3.67537L22.8672 5.64325H20.621V3.67537ZM27.1345 12.2211L25.0008 13.734V10.7082L27.1345 12.2211ZM19.3696 2.90248V6.1914C19.3696 6.33678 19.4355 6.47621 19.5529 6.57901C19.6702 6.6818 19.8293 6.73956 19.9953 6.73956H23.7495V14.622L16.1723 19.9994C15.8379 20.2371 15.4204 20.3668 14.9897 20.3668C14.5591 20.3668 14.1416 20.2371 13.8072 19.9994L6.23002 14.622V2.90248H19.3696ZM4.97863 13.734L2.84502 12.2211L4.97863 10.7082V13.734Z" fill="#00AEEF"/>
</g>
</svg>
