<?xml version="1.0" encoding="UTF-8"?>
<svg id="Layer_1" xmlns="http://www.w3.org/2000/svg" version="1.1" viewBox="0 0 27 27">
  <!-- Generator: Adobe Illustrator 29.3.1, SVG Export Plug-In . SVG Version: 2.1.0 Build 151)  -->
  <defs>
    <style>
      .st0 {
        fill: #00aeef;
      }
    </style>
  </defs>
  <path class="st0" d="M26.9,10.6C26.1,4.7,21,.1,15,0h-.4c-.4,0-.7.4-.7.8s.3.7.7.7h.4c1.6,0,3.1.4,4.5,1.2,3.8,2,5.7,5.2,5.9,9.5,0,.6.3,1,.8.9.5,0,.8-.4.7-1,0-.5,0-1-.1-1.5Z"/>
  <path class="st0" d="M14.9,6.1c2.7.2,4.6,1.5,5.6,4,.3.7.3,1.5.4,2.2,0,.3.2.6.5.7.3,0,.6,0,.8-.2.2-.2.3-.5.3-.8-.1-4.1-3.3-7.3-7.5-7.5h0c0,0-.2,0-.3,0-.3,0-.6.4-.5.8,0,.3.3.6.7.7h.3,0Z"/>
  <path class="st0" d="M21,16.4c-.4-.4-.9-.6-1.4-.6s-.9.2-1.4.6c-.3.3-.5.5-.8.8s-.7.7-1.1,1.1c-.3.3-.5.3-.8.3s-.4,0-.7-.2c-.5-.3-1-.8-1.5-1.1l-.2-.2h0c-.2-.1-.3-.3-.5-.4-1.2-1-2.2-2.2-3.2-3.4,0,0,0,0,0,0h0c0-.1-.2-.2-.2-.3-.2-.3-.4-.6-.6-.9-.4-.6-.4-1,.2-1.6l.5-.5,1.3-1.3c.8-.8.8-1.9,0-2.7-1.5-1.6-3.1-3.1-4.7-4.7-.4-.4-.9-.6-1.3-.6s-.9.2-1.3.6l-1.3,1.3c-.9.9-1.5,2-1.8,3.3,0,.3,0,.5-.2.7,0,0,0,.2,0,.3h0v1.3h0v.2c0,.8.3,1.6.7,2.3,1.6,3.2,3.6,6,5.8,8.5,2.3,2.5,5,4.6,8.1,6.3h.2c.9.6,1.9,1.1,2.9,1.4.3,0,.5,0,.8.1.1,0,.3,0,.4,0h1.3c1.5-.2,2.9-.8,4-1.8.4-.4.8-.8,1.2-1.2l.3-.3c.9-.9.9-1.9,0-2.8-1.5-1.5-3.1-3.1-4.6-4.6h0ZM24.5,22.7l-.2.2c-.4.4-.8.8-1.1,1.1-1.1,1-2.4,1.6-3.9,1.6s-1.7-.2-2.4-.6c-2.6-1.3-5.1-2.9-7.3-4.9-3.2-2.8-5.7-6.2-7.6-10-1-2.1-.8-4.1.6-6,.3-.4.7-.9,1.1-1.2l.5-.5c.2-.2.3-.2.3-.2h0c0,0,.2,0,.4.2l3,3c.5.5,1,1,1.5,1.5.3.3.3.4,0,.8-.2.2-.4.4-.6.6-.4.4-.9.9-1.3,1.3-.9.9-1,2.1-.3,3.1.3.5.7,1,1,1.5h0c0,0,0,0,.1.2,0,0,0,0,0,0h0c1.1,1.4,2.3,2.6,3.6,3.7l.2.2c0,0,.2.2.3.2.5.4,1.1.8,1.6,1.2.5.3.9.5,1.5.5s1.3-.3,1.8-.8l.9-.9c.3-.3.6-.6.9-.9s.3-.2.3-.2.2,0,.3.2l4.6,4.6c.2.2.2.4,0,.6h0Z"/>
</svg>