<?xml version="1.0" encoding="UTF-8"?>
<svg id="Layer_2" data-name="Layer 2" xmlns="http://www.w3.org/2000/svg" viewBox="0 0 82.47 84.35">
  <defs>
    <style>
      .cls-1 {
        fill: #00aeef;
      }
    </style>
  </defs>
  <g id="Layer_1-2" data-name="Layer 1">
    <g>
      <path class="cls-1" d="M59.19,44.57c-.3-.3-.71-.47-1.13-.47h-27.63l2.16-3.86h18.68c.88,0,1.6-.72,1.6-1.6s-.72-1.6-1.6-1.6h-19.62c-.58,0-1.11.31-1.4.82l-7.84,14.03L3.99,33.47c-1.05-1.05-1.06-2.76-.03-3.83.51-.53,1.2-.82,1.93-.83.73-.05,1.43.27,1.95.79l13.81,13.71c.63.62,1.64.62,2.26,0,.62-.63.62-1.64,0-2.26l-13.81-13.71c-1.13-1.13-2.68-1.72-4.24-1.72-1.6.02-3.09.66-4.2,1.81-2.23,2.31-2.2,6.04.07,8.31l19.92,19.92s.03.02.04.04c.04.03.08.07.12.1.05.03.09.07.14.1.02.01.03.02.05.03.02.01.04.01.06.02.08.04.16.07.25.1.04.01.08.03.12.03.1.02.21.04.31.04.01,0,.03,0,.04,0,0,0,0,0,0,0h1.94c0,.05-.02.11-.02.16v7.06c0,.88.72,1.6,1.6,1.6h1.82v6.15c0,.88.72,1.6,1.6,1.6s1.6-.72,1.6-1.6v-6.15h15.32v6.15c0,.88.72,1.6,1.6,1.6s1.6-.72,1.6-1.6v-6.15h1.16c.88,0,1.6-.72,1.6-1.6v-7.22h1.27l16.59,16.59c.64.64,1.39,1.08,2.18,1.37-.04.14-.07.29-.07.44v6.62h-14.67v-.16c0-3.8-3.09-6.89-6.89-6.89h-24.7c-3.8,0-6.89,3.09-6.89,6.89v1.76c0,.88.72,1.6,1.6,1.6h53.15c.88,0,1.6-.72,1.6-1.6v-8.22c0-.06-.01-.11-.02-.16,1.07-.2,2.09-.68,2.95-1.47,1.21-1.11,1.9-2.62,1.94-4.27s-.58-3.19-1.75-4.35l-19.7-19.7ZM22.62,80.98c0-2.04,1.66-3.69,3.69-3.69h24.7c2.04,0,3.69,1.66,3.69,3.69v.16H22.62v-.16ZM49.4,61.74h-21.5v-5.46c0-.06-.01-.11-.02-.16h21.51v5.62ZM76.54,70.53c-1.09,1-2.77.96-3.82-.09l-17.06-17.06c-.3-.3-.71-.47-1.13-.47h-29.03l3.14-5.62h28.75l19.23,19.23c.54.54.83,1.26.81,2.02-.02.76-.34,1.47-.9,1.98Z"/>
      <path class="cls-1" d="M70.4,0h-33.96c-.88,0-1.6.72-1.6,1.6v4.33c-6.27,1.63-11.45,6.32-13.58,12.69-.16.49-.08,1.02.22,1.44.3.42.78.67,1.3.67h33.96c.51,0,1-.25,1.3-.67.3-.42.38-.95.22-1.44-2.08-6.22-7.08-10.84-13.16-12.57v-2.85h25.31c4.89,0,8.86,3.98,8.86,8.86v23.46h-3.5v-7.74c0-.88-.72-1.6-1.6-1.6h-26.8c-.88,0-1.6.72-1.6,1.6v5.57c0,.88.72,1.6,1.6,1.6s1.6-.72,1.6-1.6v-3.97h23.6v25.14c0,.88.72,1.6,1.6,1.6s1.6-.72,1.6-1.6v-15.8h5.1c.88,0,1.6-.72,1.6-1.6V12.06c0-6.65-5.41-12.06-12.06-12.06ZM54.35,17.53h-29.19c2.73-5.48,8.34-9.04,14.59-9.04s11.86,3.55,14.59,9.04ZM41.9,5.42c-.71-.08-1.42-.13-2.14-.13-.58,0-1.15.03-1.72.08v-2.17h3.86v2.22Z"/>
    </g>
  </g>
</svg>