<?xml version="1.0" encoding="UTF-8"?>
<svg id="Layer_2" data-name="Layer 2" xmlns="http://www.w3.org/2000/svg" viewBox="0 0 65.3 95.16">
  <defs>
    <style>
      .cls-1 {
        fill: #00aeef;
      }
    </style>
  </defs>
  <g id="Layer_2-2" data-name="Layer 2">
    <g>
      <path class="cls-1" d="M65.24,58.07c-.17-12.11-7.83-23.07-19.18-27.35-.77-.29-1.64.1-1.93.88-.29.78.1,1.64.88,1.93,10.22,3.85,17.11,13.72,17.24,24.63-.02.1-.03.21-.03.31,0,18.52-14.01,33.59-31.23,33.59-.13,0-.26.02-.38.05-1.68-.15-3-1.56-3-3.3s1.26-3.08,2.88-3.29c.16.06.33.09.51.09,14.02,0,25.42-12.18,25.42-27.14,0-.85-.69-1.54-1.54-1.54s-1.54.69-1.54,1.54c0,3.4-.66,6.63-1.84,9.56l-3.79-1.42c2.72-5.67,2.71-12.28-.09-18.07-.02-.15-.06-.31-.14-.46-1.18-2.33-4-3.27-6.29-2.12-2.29,1.16-3.2,4-2.02,6.32,0,0,.01.02.02.03,0,.01,0,.02.01.04,1.84,3.64,1.65,8-.49,11.39-.44.7-.23,1.63.47,2.07.25.16.53.23.8.23.5,0,.98-.25,1.27-.7,2.7-4.27,2.95-9.77.63-14.34,0-.01-.01-.02-.02-.03,0-.01,0-.02-.01-.03-.43-.85-.12-1.88.7-2.29.74-.37,1.63-.12,2.11.56.03.11.06.22.12.33,2.78,5.5,2.6,11.9-.48,17.12-.23.38-.27.84-.12,1.26.15.42.47.75.89.91l5.15,1.93c-2.77,5.01-7.19,8.85-12.44,10.65.36-.73.58-1.56.58-2.43,0-3.07-2.54-5.56-5.66-5.56-.02,0-.03,0-.05,0-.02,0-.03,0-.05,0-8.55,0-15.5-6.79-15.5-15.13,0-.8-.65-1.44-1.44-1.44s-1.44.65-1.44,1.44c0,9.93,8.25,18.01,18.39,18.01.02,0,.03,0,.05,0,.02,0,.03,0,.05,0,1.53,0,2.77,1.2,2.77,2.68,0,1.37-1.08,2.5-2.46,2.65-.13-.04-.26-.06-.4-.06-12.91,0-23.44-10.16-23.64-22.73.03-.11.05-.23.05-.36,0-11.15,7.03-21.21,17.5-25.03.78-.28,1.18-1.15.89-1.92-.28-.78-1.14-1.18-1.92-.89-11.65,4.25-19.47,15.45-19.47,27.85,0,.15.03.29.07.42.21,12.29,9.17,22.54,21.04,24.99-1.46,1.15-2.4,2.93-2.4,4.93,0,3.3,2.55,6,5.76,6.23.17.06.35.1.54.1,18.92,0,34.32-16.46,34.32-36.68,0-.14-.02-.27-.06-.4Z"/>
      <path class="cls-1" d="M28.09,47.4c-5.69,0-10.31,4.62-10.31,10.31s4.63,10.31,10.31,10.31,10.31-4.63,10.31-10.31-4.63-10.31-10.31-10.31ZM28.09,65.02c-4.03,0-7.31-3.28-7.31-7.31s3.28-7.31,7.31-7.31,7.31,3.28,7.31,7.31-3.28,7.31-7.31,7.31Z"/>
      <path class="cls-1" d="M22.07,23.63c2.6,5.03,7.69,8.46,13.54,8.46,8.48,0,15.37-7.2,15.37-16.05S44.09,0,35.61,0c-7.86,0-14.34,6.19-15.25,14.14-5.47-.22-10.74,1.82-14.63,5.71C1.55,24.03-.5,29.81.11,35.7c.07.71.63,1.27,1.34,1.34.68.07,1.36.1,2.04.1,5.17,0,10.12-2.03,13.81-5.73,2.22-2.22,3.83-4.89,4.77-7.79ZM35.61,3.07c6.78,0,12.3,5.82,12.3,12.97s-5.52,12.97-12.3,12.97-12.3-5.82-12.3-12.97,5.52-12.97,12.3-12.97ZM3.01,34.14c-.13-4.55,1.6-8.93,4.84-12.17,3.24-3.24,7.61-4.98,12.17-4.84.13,4.55-1.6,8.93-4.84,12.17-3.24,3.24-7.63,4.97-12.17,4.84Z"/>
    </g>
  </g>
</svg>