<?xml version="1.0" encoding="UTF-8"?>
<svg id="Layer_2" data-name="Layer 2" xmlns="http://www.w3.org/2000/svg" viewBox="0 0 89.36 59.06">
  <defs>
    <style>
      .cls-1 {
        fill: #00aeef;
      }
    </style>
  </defs>
  <g id="Layer_1-2" data-name="Layer 1">
    <g>
      <path class="cls-1" d="M81.66,0H30.13c-.91,0-1.65.74-1.65,1.65s.74,1.65,1.65,1.65h51.53c2.43,0,4.4,1.97,4.4,4.4v42.96c0,2.81-2.29,5.09-5.09,5.09H8.4c-2.81,0-5.1-2.29-5.1-5.09V8.4c0-2.81,2.29-5.1,5.1-5.1h14.81c.91,0,1.65-.74,1.65-1.65s-.74-1.65-1.65-1.65h-14.81C3.77,0,0,3.77,0,8.4v42.27c0,4.63,3.77,8.4,8.4,8.4h72.57c4.63,0,8.4-3.77,8.4-8.4V7.7c0-4.25-3.46-7.7-7.7-7.7Z"/>
      <path class="cls-1" d="M6.8,14.58c-.53.74-.36,1.77.38,2.3l31.19,22.35c1.89,1.35,4.1,2.03,6.31,2.03s4.42-.68,6.31-2.03l31.19-22.35c.74-.53.91-1.56.38-2.3-.53-.74-1.56-.91-2.3-.38l-31.19,22.36c-2.63,1.88-6.15,1.88-8.78,0L9.1,14.2c-.74-.53-1.77-.36-2.3.38Z"/>
    </g>
  </g>
</svg>