<?xml version="1.0" encoding="UTF-8"?>
<svg id="Layer_2" data-name="Layer 2" xmlns="http://www.w3.org/2000/svg" viewBox="0 0 71.27 84.87">
  <defs>
    <style>
      .cls-1 {
        fill: #00aeef;
      }
    </style>
  </defs>
  <g id="Layer_1-2" data-name="Layer 1">
    <path class="cls-1" d="M10.28,84.87c-5.67,0-10.28-4.61-10.28-10.28v-41.55c0-4.06,2.23-7.74,5.82-9.62l4.65-2.44v-2.88c-3.25-.38-5.72-3.11-5.72-6.45v-5.15C4.75,2.92,7.67,0,11.25,0h36.02c3.58,0,6.5,2.92,6.5,6.5v5.15c0,3.33-2.56,6.12-5.82,6.46v2.81l4.75,2.49c3.59,1.88,5.82,5.57,5.82,9.62v8.15c.35-.03.7-.05,1.05-.05,3.13,0,6.07,1.21,8.27,3.42,4.56,4.56,4.56,11.99,0,16.55l-9.32,9.32v4.15c0,5.67-4.61,10.28-10.28,10.28H10.28ZM48.25,81.67c3.91,0,7.09-3.18,7.09-7.09v-.96l-7.69,7.69c-.12.12-.24.24-.37.35h.97ZM3.19,74.59c0,3.91,3.18,7.09,7.09,7.09h21.18c-.13-.12-.25-.23-.37-.35-2.21-2.21-3.42-5.15-3.42-8.28s1.22-6.07,3.42-8.27l20.2-20.2c1.16-1.16,2.52-2.05,4.04-2.63v-8.9c0-2.86-1.58-5.47-4.11-6.79l-4.72-2.48H12.03l-4.72,2.48c-2.54,1.33-4.11,3.93-4.11,6.79v1.06h5.23c.88,0,1.6.72,1.6,1.6,0,.43-.17.83-.47,1.13-.3.3-.7.47-1.13.47H3.19v29.01h20.04c1.81,0,3.29-1.48,3.29-3.29v-22.43c0-1.81-1.48-3.29-3.29-3.29h-9.82c-.88,0-1.6-.72-1.6-1.6,0-.43.17-.83.47-1.13s.7-.47,1.13-.47h9.82c3.57,0,6.48,2.91,6.48,6.48v22.43c0,3.57-2.91,6.48-6.48,6.48H3.19v5.09ZM33.35,67.03c-3.32,3.32-3.32,8.72,0,12.04,1.6,1.61,3.74,2.49,6.02,2.49s4.41-.88,6.02-2.49l8.97-8.97-6.12-6.12c-.3-.3-.47-.7-.47-1.13s.17-.83.47-1.13c.3-.3.7-.47,1.13-.47s.83.17,1.13.47l6.12,6.12,8.97-8.97c3.32-3.32,3.32-8.72,0-12.04-1.6-1.6-3.74-2.49-6.02-2.49s-4.41.88-6.02,2.49l-8.97,8.97,2.31,2.31c.62.62.62,1.64,0,2.26-.3.3-.7.47-1.13.47s-.83-.17-1.13-.47l-2.31-2.31-8.97,8.97ZM44.76,19.61v-1.46H13.66v1.46h31.1ZM11.25,3.19c-1.82,0-3.31,1.48-3.31,3.3v5.15c0,1.82,1.48,3.3,3.31,3.3h36.02c1.82,0,3.31-1.48,3.31-3.3v-5.15c0-1.82-1.48-3.3-3.31-3.3H11.25Z"/>
  </g>
</svg>