<?xml version="1.0" encoding="UTF-8"?>
<svg id="Layer_2" data-name="Layer 2" xmlns="http://www.w3.org/2000/svg" viewBox="0 0 90.66 90.72">
  <defs>
    <style>
      .cls-1 {
        fill: #1dadeb;
      }
    </style>
  </defs>
  <g id="Layer_1-2" data-name="Layer 1">
    <g>
      <path class="cls-1" d="M34.15,30.24h5.75v5.75c0,1.33,1.08,2.41,2.41,2.41h6.05c1.33,0,2.41-1.08,2.41-2.41v-5.75h5.75c1.33,0,2.41-1.08,2.41-2.41v-6.05c0-1.33-1.08-2.41-2.41-2.41h-5.75v-5.75c0-1.33-1.08-2.41-2.41-2.41h-6.05c-1.33,0-2.41,1.08-2.41,2.41v5.75h-5.75c-1.33,0-2.41,1.08-2.41,2.41v6.05c0,1.33,1.08,2.41,2.41,2.41ZM34.45,22.09h8.15v-8.15h5.43v8.15h8.15v5.43h-8.15v8.15h-5.43v-8.15h-8.15v-5.43Z"/>
      <path class="cls-1" d="M88.58,29.21h-20.59V2.08c0-1.15-.93-2.08-2.08-2.08H24.74c-1.15,0-2.08.93-2.08,2.08v27.13H2.08c-1.15,0-2.08.93-2.08,2.08v59.44h90.66V31.28c0-1.15-.93-2.08-2.08-2.08ZM22.66,87.5H3.23v-55.05h19.44v55.05ZM43.7,87.5h-8.1v-29.14h8.1v29.14ZM55.05,87.5h-8.1v-29.14h8.1v29.14ZM64.77,87.5h-6.47v-29.82c0-1.41-1.15-2.56-2.56-2.56h-20.79c-1.41,0-2.56,1.15-2.56,2.56v29.82h-6.47V3.25h38.86v84.25ZM87.43,87.5h-19.44v-55.05h19.44v55.05Z"/>
      <path class="cls-1" d="M18.72,36.38H7.17v8.67h11.55v-8.67ZM10.05,42.17v-2.9h5.77v2.9h-5.77Z"/>
      <path class="cls-1" d="M83.59,36.38h-11.55v8.67h11.55v-8.67ZM74.92,42.17v-2.9h5.77v2.9h-5.77Z"/>
      <path class="cls-1" d="M18.72,47.95H7.17v8.67h11.55v-8.67ZM10.05,53.72v-2.9h5.77v2.9h-5.77Z"/>
      <path class="cls-1" d="M83.59,47.95h-11.55v8.67h11.55v-8.67ZM74.92,53.72v-2.9h5.77v2.9h-5.77Z"/>
      <path class="cls-1" d="M18.72,59.49H7.17v8.67h11.55v-8.67ZM10.05,65.27v-2.9h5.77v2.9h-5.77Z"/>
      <path class="cls-1" d="M83.59,59.49h-11.55v8.67h11.55v-8.67ZM74.92,65.27v-2.9h5.77v2.9h-5.77Z"/>
      <path class="cls-1" d="M18.72,71.06H7.17v8.67h11.55v-8.67ZM10.05,76.84v-2.9h5.77v2.9h-5.77Z"/>
      <path class="cls-1" d="M83.59,71.06h-11.55v8.67h11.55v-8.67ZM74.92,76.84v-2.9h5.77v2.9h-5.77Z"/>
    </g>
  </g>
</svg>