<?xml version="1.0" encoding="UTF-8"?>
<svg id="Layer_2" data-name="Layer 2" xmlns="http://www.w3.org/2000/svg" viewBox="0 0 93.05 88.43">
  <defs>
    <style>
      .cls-1 {
        fill: #00aeef;
      }
    </style>
  </defs>
  <g id="Layer_1-2" data-name="Layer 1">
    <g>
      <path class="cls-1" d="M93.05,54.52c0-9.64-6.01-18.19-14.98-21.36-.65-1.31-1.64-2.45-2.85-3.26l3.4-9.56c.12.02.25.02.37.02,1.27,0,2.41-.8,2.85-2,.56-1.57-.27-3.31-1.83-3.88l-.2-.07.59-1.67c.26-.74-.12-1.56-.86-1.83l-8.56-3.12c-.16-.06-.32-.09-.49-.09-.21,0-.42.05-.61.13-.35.16-.61.45-.74.81l-.6,1.64-.18-.07c-.33-.12-.67-.18-1.02-.18-.45,0-.88.1-1.29.29-.74.35-1.29.96-1.56,1.72-.27.74-.24,1.55.1,2.29.25.53.63.97,1.12,1.28l-12.03,33.75c-.51,1.48.26,3.15,1.68,3.71l-.59,1.66c-.26.74.13,1.56.86,1.83l4.92,1.78c.16.06.32.08.48.08.21,0,.42-.05.61-.14.34-.16.61-.46.74-.82l.58-1.62c.27.08.56.13.85.13.45,0,.9-.1,1.3-.3.71-.35,1.24-.94,1.48-1.65l3.18-8.9c.3.03.59.05.88.05,2.24,0,4.37-.92,5.93-2.55,3.4,2.25,5.49,6.1,5.49,10.2,0,5.97-4.38,11.16-10.21,12.08h-26.13c-1.73,0-3.14,1.4-3.14,3.13s1.41,3.13,3.14,3.13h7.62c4.7.37,4.69,1.85,4.68,2.34v5.66h-15.3c-4.26,0-7.73,3.5-7.73,7.79,0,.79.64,1.44,1.44,1.44h47.74c.79,0,1.44-.64,1.44-1.44,0-4.3-3.45-7.79-7.7-7.79h-2.48v-2.61c10.23-2.25,17.59-11.44,17.59-22.07ZM71.35,10.99l5.87,2.14-.1.29-5.88-2.14.11-.3ZM67.29,12.94s.04-.01.06-.01h.04s1.44.53,1.44.53c.03.02.06.03.09.04l4.38,1.59,5.75,2.1c.09.03.14.13.11.21-.02.06-.09.1-.17.1,0,0-.01,0-.02,0l-11.65-4.25s-.08-.05-.11-.19c.02-.05.05-.08.09-.1ZM60.18,55.17l-2.22-.8.1-.28,2.21.81-.1.27ZM63.84,53.14l-3.54-1.3-2.6-.96s-.06-.02-.1-.03l-1.16-.42s-.05-.08-.04-.1l11.99-33.64,7.51,2.73-3.32,9.31c-.15-.03-.29-.06-.44-.09-.11-.02-.23-.04-.34-.05-.43-.06-.78-.09-1.13-.09-4.57,0-8.29,3.74-8.29,8.33,0,.36.03.72.09,1.16l.03.21c.4,2.42,1.83,4.54,3.95,5.82l.12.07c.16.09.31.17.46.25l-3.19,8.8ZM76,37.57l-.03.22c-.03.2-.08.39-.13.58-.03.1-.06.2-.1.3-.05.14-.1.27-.16.4-.05.12-.1.23-.17.35l-.1.17c-.97,1.69-2.75,2.73-4.65,2.73-.53,0-1.06-.08-1.56-.23-.22-.07-.43-.15-.64-.24l-.16-.08c-1.56-.78-2.67-2.27-2.97-3.99l-.68.12.66-.23c-.05-.3-.07-.58-.07-.83,0-3.01,2.43-5.46,5.42-5.46s5.39,2.45,5.39,5.46c0,.25-.02.49-.05.73ZM77.93,82.07c2.15,0,4.01,1.45,4.62,3.49h-44.45c.61-2.03,2.49-3.49,4.65-3.49h35.18ZM73.79,73.99c-.7.11-1.2.71-1.2,1.42v3.79h-11.66v-5.65c.04-3.08-2.44-4.83-7.44-5.23h-7.74c-.14,0-.27-.12-.27-.26,0-.15.11-.26.27-.26h26.24c.07,0,.14,0,.21-.02,7.27-1.09,12.75-7.51,12.75-14.94,0-5.3-2.68-10.1-7.18-12.86l.47.17s.04-.09.04-.1c.07-.17.13-.34.18-.51.05-.14.09-.27.13-.42.04-.14.08-.29.11-.44.04-.19.08-.38.12-.66.01-.09.03-.17.04-.26.04-.31.06-.63.06-.95,0-.08,0-.16,0-.24,6.87,3.23,11.25,10.15,11.25,17.92,0,9.72-6.89,17.91-16.39,19.47Z"/>
      <path class="cls-1" d="M70.67,32.83c-.41,0-.74.33-.74.74s.33.74.74.74c1.37,0,2.49,1.13,2.49,2.53s-1.12,2.53-2.49,2.53c-.41,0-.74.33-.74.74s.33.74.74.74c2.19,0,3.98-1.8,3.98-4.01s-1.78-4.01-3.98-4.01Z"/>
      <path class="cls-1" d="M38.96,75.26c.26.61.85.98,1.48.98.21,0,.42-.04.62-.13.81-.34,1.2-1.28.85-2.09-3.2-7.61-11.43-12.47-16.21-14.74,6.02-2.86,17.52-9.81,17.52-21.19s-11.5-18.33-17.52-21.19c4.76-2.27,12.95-7.1,16.17-14.66.35-.81-.03-1.75-.84-2.1-.81-.35-1.75.03-2.1.84-3.56,8.35-14.74,13.19-17.32,14.21-2.58-1.02-13.76-5.86-17.32-14.21C3.95.16,3.01-.22,2.2.13c-.81.35-1.19,1.29-.84,2.1,3.23,7.57,11.41,12.4,16.17,14.66C11.5,19.75,0,26.7,0,38.08s11.5,18.33,17.52,21.19c-4.77,2.27-12.99,7.12-16.2,14.72-.34.81.04,1.75.85,2.1.81.34,1.75-.04,2.1-.85,3.54-8.38,14.75-13.24,17.34-14.26,2.59,1.02,13.82,5.88,17.35,14.27ZM3.2,38.08c0-11.59,15.33-18.25,18.41-19.48,3.08,1.22,18.41,7.89,18.41,19.48s-15.33,18.26-18.41,19.48c-3.08-1.22-18.41-7.89-18.41-19.48Z"/>
      <path class="cls-1" d="M10.09,4.37h23.05c.88,0,1.6-.72,1.6-1.6s-.72-1.6-1.6-1.6H10.09c-.88,0-1.6.72-1.6,1.6s.72,1.6,1.6,1.6Z"/>
      <path class="cls-1" d="M15.85,8.23c-.88,0-1.6.72-1.6,1.6s.72,1.6,1.6,1.6h11.52c.88,0,1.6-.72,1.6-1.6s-.72-1.6-1.6-1.6h-11.52Z"/>
      <path class="cls-1" d="M33.14,71.8H10.09c-.88,0-1.6.72-1.6,1.6s.72,1.6,1.6,1.6h23.05c.88,0,1.6-.72,1.6-1.6s-.72-1.6-1.6-1.6Z"/>
      <path class="cls-1" d="M15.85,64.74c-.88,0-1.6.72-1.6,1.6s.72,1.6,1.6,1.6h11.52c.88,0,1.6-.72,1.6-1.6s-.72-1.6-1.6-1.6h-11.52Z"/>
      <path class="cls-1" d="M36.66,38.08c0-.88-.72-1.6-1.6-1.6H8.17c-.88,0-1.6.72-1.6,1.6s.72,1.6,1.6,1.6h26.89c.88,0,1.6-.72,1.6-1.6Z"/>
      <path class="cls-1" d="M10.09,32.62h23.05c.88,0,1.6-.72,1.6-1.6s-.72-1.6-1.6-1.6H10.09c-.88,0-1.6.72-1.6,1.6s.72,1.6,1.6,1.6Z"/>
      <path class="cls-1" d="M15.85,25.56h11.52c.88,0,1.6-.72,1.6-1.6s-.72-1.6-1.6-1.6h-11.52c-.88,0-1.6.72-1.6,1.6s.72,1.6,1.6,1.6Z"/>
      <path class="cls-1" d="M28.97,52.21c0-.88-.72-1.6-1.6-1.6h-11.52c-.88,0-1.6.72-1.6,1.6s.72,1.6,1.6,1.6h11.52c.88,0,1.6-.72,1.6-1.6Z"/>
      <path class="cls-1" d="M34.74,45.15c0-.88-.72-1.6-1.6-1.6H10.09c-.88,0-1.6.72-1.6,1.6s.72,1.6,1.6,1.6h23.05c.88,0,1.6-.72,1.6-1.6Z"/>
    </g>
  </g>
</svg>