<?xml version="1.0" encoding="UTF-8"?>
<svg id="Layer_2" data-name="Layer 2" xmlns="http://www.w3.org/2000/svg" viewBox="0 0 52.74 40.63">
  <defs>
    <style>
      .cls-1 {
        fill: #1daeeb;
      }
    </style>
  </defs>
  <g id="user">
    <g>
      <path class="cls-1" d="M26.79,28.33c0,.23.08.46.24.63.16.17.38.26.62.26h16.54c.23,0,.46-.09.62-.26.16-.17.25-.39.24-.63-.15-3.97-2.55-7.27-5.89-8.6,1.77-1.09,2.96-3.04,2.96-5.27,0-3.42-2.78-6.2-6.2-6.2s-6.2,2.78-6.2,6.2c0,2.23,1.19,4.18,2.96,5.27-3.33,1.32-5.74,4.63-5.89,8.6ZM31.43,14.46c0-2.47,2.01-4.49,4.48-4.49s4.49,2.01,4.49,4.49-2.01,4.48-4.49,4.48-4.48-2.01-4.48-4.48ZM35.92,20.82c3.72,0,6.79,2.87,7.34,6.69h-14.67c.54-3.81,3.62-6.69,7.34-6.69Z"/>
      <path class="cls-1" d="M51.86,4.39c-.49,0-.88.39-.88.88v31.64h-4.77c-5.66,0-11.29.64-16.81,1.91-.71.16-1.44-.13-1.85-.73,3.14-1.92,6.75-2.94,10.43-2.94h10.36c.49,0,.88-.39.88-.88v-8.53c0-.49-.39-.88-.88-.88s-.88.39-.88.88v7.65h-9.48c-3.76,0-7.46.97-10.73,2.82v-3.45c0-.49-.39-.88-.88-.88s-.88.39-.88.88v3.45c-3.27-1.85-6.97-2.83-10.73-2.82H5.27V1.76h13.54c3.69,0,6.68,2.99,6.68,6.68,0,.49.39.88.88.88s.88-.39.88-.88c0-3.69,2.99-6.68,6.68-6.68h13.54v4.91c0,.49.39.88.88.88s.88-.39.88-.88V.88c0-.49-.39-.88-.88-.88h-14.41c-3.2,0-6.13,1.82-7.56,4.69C24.94,1.82,22.01,0,18.81,0H4.39c-.49,0-.88.39-.88.88v33.4c0,.49.39.88.88.88h10.36c3.68,0,7.29,1.02,10.43,2.94-.4.6-1.14.89-1.85.73-5.51-1.27-11.15-1.91-16.81-1.91H1.76V5.27c0-.49-.39-.88-.88-.88s-.88.39-.88.88v32.52c0,.49.39.88.88.88h5.65c5.52,0,11.03.63,16.41,1.87,1.26.29,2.58-.14,3.43-1.11.85.98,2.17,1.41,3.43,1.11,5.38-1.24,10.89-1.87,16.41-1.87h5.65c.49,0,.88-.39.88-.88V5.27c0-.49-.39-.88-.88-.88Z"/>
      <path class="cls-1" d="M15.18,6.66h-.1c-.56,0-.96.3-1.19.8l-4.17,9.3c-.08.16-.13.3-.13.45,0,.51.4.91.91.91.42,0,.75-.22.91-.63l.95-2.17h5.45l.91,2.1c.18.42.5.69.96.69.53,0,.93-.42.93-.95,0-.13-.03-.27-.11-.42l-4.17-9.3c-.22-.5-.61-.8-1.17-.8ZM13.13,13.59l1.97-4.54,1.97,4.54h-3.95Z"/>
    </g>
  </g>
</svg>