<?xml version="1.0" encoding="UTF-8"?>
<svg id="Layer_2" data-name="Layer 2" xmlns="http://www.w3.org/2000/svg" viewBox="0 0 93.58 87.79">
  <defs>
    <style>
      .cls-1 {
        fill: #00aeef;
      }
    </style>
  </defs>
  <g id="Layer_1-2" data-name="Layer 1">
    <g>
      <path class="cls-1" d="M77.17,54.8h-5.24v-5.24c0-.91-.74-1.65-1.65-1.65h-8.1c-.91,0-1.65.74-1.65,1.65v5.24h-5.24c-.91,0-1.65.74-1.65,1.65v8.1c0,.91.74,1.65,1.65,1.65h5.24v5.24c0,.91.74,1.65,1.65,1.65h8.1c.91,0,1.65-.74,1.65-1.65v-5.24h5.24c.91,0,1.65-.74,1.65-1.65v-8.1c0-.91-.74-1.65-1.65-1.65ZM75.52,62.9h-5.24c-.91,0-1.65.74-1.65,1.65v5.24h-4.8v-5.24c0-.91-.74-1.65-1.65-1.65h-5.24v-4.8h5.24c.91,0,1.65-.74,1.65-1.65v-5.24h4.8v5.24c0,.91.74,1.65,1.65,1.65h5.24v4.8Z"/>
      <path class="cls-1" d="M89.74,27.31h-7.28v-15.1c0-1.88-1.54-3.42-3.43-3.42h-4.09V3.42c0-1.88-1.54-3.42-3.43-3.42H13.27c-1.89,0-3.43,1.53-3.43,3.42v34.89H3.73c-2.05,0-3.73,1.67-3.73,3.73v40.86c0,2.7,2.19,4.89,4.89,4.89h83.8c2.7,0,4.89-2.19,4.89-4.89V31.15c0-2.11-1.72-3.83-3.83-3.83ZM79.17,12.21v15.1h-23.12c-.45,0-.88.18-1.19.51l-10.05,10.49h-24.15V12.21c0-.06.06-.12.13-.12h58.24c.07,0,.13.05.13.12ZM13.14,3.42c0-.06.06-.12.13-.12h58.24c.07,0,.13.05.13.12v5.38H20.79c-1.89,0-3.43,1.53-3.43,3.42v26.1h-4.22V3.42ZM90.28,82.9c0,.88-.71,1.59-1.59,1.59H4.89c-.88,0-1.59-.71-1.59-1.59v-40.86c0-.23.19-.43.43-.43h41.79c.45,0,.88-.18,1.19-.51l10.04-10.49h32.99c.29,0,.53.24.53.54v51.75Z"/>
      <path class="cls-1" d="M30.93,21.7h35.88c.91,0,1.65-.74,1.65-1.65s-.74-1.65-1.65-1.65H30.93c-.91,0-1.65.74-1.65,1.65s.74,1.65,1.65,1.65Z"/>
      <path class="cls-1" d="M30.93,30.5h11.74c.91,0,1.65-.74,1.65-1.65s-.74-1.65-1.65-1.65h-11.74c-.91,0-1.65.74-1.65,1.65s.74,1.65,1.65,1.65Z"/>
    </g>
  </g>
</svg>