<?xml version="1.0" encoding="UTF-8"?>
<svg id="Layer_2" data-name="Layer 2" xmlns="http://www.w3.org/2000/svg" viewBox="0 0 76.41 63.81">
  <defs>
    <style>
      .cls-1 {
        fill: #00aeef;
      }
    </style>
  </defs>
  <g id="Layer_2-2" data-name="Layer 2">
    <g>
      <path class="cls-1" d="M47.18,51.62l-1.51-.1c-.46-.03-.91-.13-1.35-.29-.33-.12-.64-.28-.93-.47-.01,0-.02-.02-.04-.03-.48-.32-.77-.86-.77-1.44v-.23c2.26-1.61,3.74-4.24,3.74-7.22v-2.52c.02-.07.06-.13.07-.2.12-.62.19-1.27.19-1.92,0-5.45-4.43-9.88-9.88-9.88s-9.88,4.43-9.88,9.88c0,.33.02.65.05.97.06.58.45,1.08,1,1.27l3.2,1.12c.77.27,1.57.41,2.38.41,1.65,0,3.27-.57,4.55-1.61,1.58-1.28,3.8-1.23,5.32.02v2.46c0,3.23-2.63,5.87-5.87,5.87-2.91,0-5.41-2.17-5.81-5.05-.11-.82-.87-1.39-1.69-1.28-.82.11-1.39.87-1.28,1.69.34,2.46,1.69,4.58,3.6,5.96v.27c0,.58-.29,1.12-.77,1.44-.01,0-.02.02-.04.02-.29.19-.61.35-.94.47-.44.16-.89.26-1.34.29l-1.52.1c-4.15.28-7.4,3.76-7.4,7.92v1.73c0,.83.67,1.5,1.5,1.5s1.5-.67,1.5-1.5v-1.73c0-2.59,2.02-4.75,4.6-4.93l1.52-.1c.6-.04,1.18-.17,1.76-.34,1.62,1.76,3.9,2.78,6.32,2.78s4.69-1.02,6.31-2.77c.56.17,1.12.29,1.7.33l1.51.1c2.58.17,4.61,2.34,4.61,4.93v2.77c0,.83.67,1.5,1.5,1.5s1.5-.67,1.5-1.5v-2.77c0-4.16-3.25-7.64-7.41-7.92ZM36.11,37.03c-1.12.91-2.69,1.18-4.05.7l-2.23-.78c.13-3.68,3.16-6.63,6.87-6.63,3.38,0,6.19,2.45,6.77,5.66-2.38-1.01-5.22-.69-7.36,1.05ZM33.87,52.64c.62-.62,1.06-1.39,1.27-2.25.74.2,1.52.31,2.31.31s1.54-.11,2.26-.3c.21.86.66,1.65,1.3,2.27-.99.81-2.24,1.28-3.55,1.28s-2.59-.48-3.59-1.31Z"/>
      <path class="cls-1" d="M72.97,36.09l-6.67-2.33c-.25-.09-.42-.33-.42-.6v-2.5c2.44-1.84,4.02-4.76,4.02-8.04v-5.21c0-.81-.64-1.47-1.44-1.5-1.13-.04-2.2-.62-2.85-1.55-.11-.16-.25-.29-.4-.39.33-.43.63-.88.92-1.35.43-.71.21-1.63-.5-2.06-.71-.43-1.63-.21-2.06.5-2.5,4.1-7.05,6.53-11.82,6.37l-.46-.02c-.44-.01-.8.14-1.09.42-.29.28-.46.67-.46,1.08v3.7c0,3.28,1.58,6.2,4.02,8.04v2.5c0,.27-.17.51-.42.6l-3.84,1.34c-.78.27-1.2,1.13-.92,1.91.22.62.8,1.01,1.42,1.01.16,0,.33-.03.49-.08l1.94-.68c1.96,1.27,4.61,1.99,7.39,1.99s5.43-.73,7.39-1.99l4.77,1.67c.85.3,1.43,1.11,1.43,2.01v10.25c0,.83.67,1.5,1.5,1.5s1.5-.67,1.5-1.5v-10.25c0-2.18-1.38-4.13-3.44-4.84ZM52.73,20.43c3.92-.13,7.63-1.67,10.47-4.27.9,1.25,2.22,2.14,3.7,2.53v3.92c0,3.91-3.18,7.08-7.08,7.08s-7.08-3.18-7.08-7.08v-2.19ZM55.81,35.59c.59-.65.94-1.51.94-2.43v-.94c.97.31,1.99.48,3.06.48s2.09-.17,3.06-.48v.94c0,.92.35,1.78.94,2.43-1.19.42-2.57.65-4,.65s-2.81-.23-4.01-.65Z"/>
      <path class="cls-1" d="M46.41,30.34c.83,0,1.5-.67,1.5-1.5v-12.54c0-6.46,5.25-11.71,11.71-11.71s11.71,5.25,11.71,11.71v17.55c0,.83.67,1.5,1.5,1.5s1.5-.67,1.5-1.5v-17.55c0-8.11-6.6-14.71-14.71-14.71s-14.71,6.6-14.71,14.71v12.54c0,.83.67,1.5,1.5,1.5Z"/>
      <path class="cls-1" d="M7.85,15.09l.2.32c.28.46.78.72,1.28.72.27,0,.54-.07.78-.22.71-.43.93-1.35.5-2.06l-.2-.32c-.38-.62-.58-1.23-.6-1.82v-.11c0-2,1.73-3.83,4.3-4.54.48-.13.87-.5,1.03-.98l.26-.79c.17-.51.53-.98,1.05-1.36.58-.42,1.31-.7,2.11-.81,2.69-.37,5.44.1,7.65,1.28,2.48,1.32,4.04,3.38,4.29,5.65.09.82.83,1.41,1.65,1.33.82-.09,1.42-.83,1.33-1.65-.35-3.27-2.48-6.18-5.86-7.98C24.85.28,21.47-.3,18.14.15c-1.29.18-2.49.65-3.47,1.36-1.04.75-1.78,1.74-2.14,2.85l-.02.06c-3.45,1.24-5.71,4.04-5.71,7.18v.21c.04,1.11.39,2.21,1.04,3.28Z"/>
      <path class="cls-1" d="M24.93,36.17c-.5-.66-1.44-.79-2.1-.29-.8.61-1.77.93-2.8.93-2.42,0-4.39-1.82-4.45-4.08.04-.07.09-.14.12-.21l.72-1.5c1.19.59,2.51.91,3.88.91,2.55,0,4.97-1.11,6.63-3.04l1.74-2.02c1.37-1.59,2.12-3.62,2.12-5.71v-8.21c0-.84-.23-1.66-.65-2.37-.98-1.65-2.9-2.56-4.85-2.21l-2.5.46c-1.14.21-2.31.09-3.39-.33-.28-.11-.55-.24-.81-.39-.72-.41-1.63-.16-2.05.55-.41.72-.16,1.64.55,2.05.39.22.79.42,1.2.58,1.6.63,3.34.8,5.03.5l2.5-.46c.69-.12,1.38.2,1.73.79.15.25.23.54.23.84v8.21c0,1.38-.5,2.71-1.4,3.76l-1.74,2.02c-1.09,1.27-2.68,2-4.36,2-1.68,0-3.26-.73-4.36-2l-1.74-2.02c-.9-1.04-1.4-2.38-1.4-3.77l-.02-2.41c0-.82-.68-1.49-1.5-1.49h-.01c-.83,0-1.49.68-1.49,1.51l.02,2.4c0,2.1.75,4.13,2.12,5.71l1.74,2.02c.09.11.2.21.3.31l-.97,2.02c-.11.24-.3.43-.54.57-.11.06-.22.11-.34.14l-5.66,1.57c-.15.04-.3.08-.44.13-3.21,1.07-5.47,4.13-5.63,7.62L0,49.39c-.04.83.6,1.53,1.43,1.57.02,0,.05,0,.07,0,.8,0,1.46-.63,1.5-1.43l.37-8.12c.1-2.25,1.54-4.23,3.58-4.91.1-.03.19-.06.29-.09l5.67-1.57s0,0,.01,0c.97,2.89,3.78,4.99,7.1,4.99,1.7,0,3.29-.53,4.62-1.54.66-.5.79-1.44.28-2.1Z"/>
      <path class="cls-1" d="M10.47,43.12c-.83,0-1.5.67-1.5,1.5v4.84c0,.83.67,1.5,1.5,1.5s1.5-.67,1.5-1.5v-4.84c0-.83-.67-1.5-1.5-1.5Z"/>
    </g>
  </g>
</svg>