<?xml version="1.0" encoding="UTF-8"?>
<svg id="Layer_2" data-name="Layer 2" xmlns="http://www.w3.org/2000/svg" viewBox="0 0 51.59 47.11">
  <defs>
    <style>
      .cls-1 {
        fill: #00aeef;
      }
    </style>
  </defs>
  <g id="user">
    <g>
      <path class="cls-1" d="M26.26,26.41c4.25-2.26,7.15-6.73,7.15-11.86,0-7.41-6.03-13.43-13.43-13.43S6.55,7.14,6.55,14.54c0,5.14,2.9,9.61,7.15,11.86C5.98,29.08.34,36.53,0,45.55c-.02.41.14.8.42,1.1.28.29.67.46,1.08.46h36.96c.41,0,.8-.17,1.08-.46.28-.29.43-.69.42-1.1-.34-9.02-5.98-16.47-13.7-19.14ZM9.55,14.54c0-5.75,4.68-10.43,10.43-10.43s10.43,4.68,10.43,10.43-4.68,10.43-10.43,10.43-10.43-4.68-10.43-10.43ZM3.12,44.11c1.06-8.96,8.2-15.77,16.86-15.77s15.81,6.81,16.86,15.77H3.12Z"/>
      <path class="cls-1" d="M43.23,0c-3.62,0-6.16,1.49-8.14,3.66-.3.3-.45.67-.45,1.01,0,.75.6,1.31,1.34,1.31.41,0,.75-.19,1.01-.41,1.68-1.83,3.66-2.91,6.16-2.91,3.36,0,5.45,2.16,5.45,4.85v.07c0,3.13-2.5,4.89-6.46,5.19-.71.07-1.16.6-1.08,1.31l.41,5.25c.07.6.49,1.01.97,1.01h.15c.52,0,.9-.41.97-1.01l.26-4.28c4.25-.6,7.76-2.91,7.76-7.58v-.07c0-4.25-3.32-7.39-8.36-7.39Z"/>
      <path class="cls-1" d="M42.49,22.35c-1.01,0-1.79.75-1.79,1.75v.75c0,1.01.78,1.79,1.79,1.79s1.79-.78,1.79-1.79v-.75c0-1.01-.78-1.75-1.79-1.75Z"/>
    </g>
  </g>
</svg>