<?xml version="1.0" encoding="UTF-8"?>
<svg id="Layer_2" xmlns="http://www.w3.org/2000/svg" version="1.1" xmlns:serif="http://www.serif.com/" viewBox="0 0 25 25">
  <!-- Generator: Adobe Illustrator 29.3.1, SVG Export Plug-In . SVG Version: 2.1.0 Build 151)  -->
  <defs>
    <style>
      .st0 {
        fill: #00aeef;
      }
    </style>
  </defs>
  <path class="st0" d="M24.7,22.5l-6.2-6.1c1.3-1.7,2.1-3.9,2.1-6.2C20.6,4.6,16,0,10.3,0S0,4.6,0,10.2s3.9,9.5,9,10.1c5.1.6.4,0,.6,0s1,0,1.2,0,.4,0,.6,0c.5,0,1-.1,1.4-.2s1.1-.3,1.7-.6,1.2-.7,1.8-1.1l6.2,6.2c.5.5,1.3.5,1.8,0l.3-.3c.5-.5.5-1.3,0-1.8h0ZM2.7,10.2c0-4.2,3.4-7.5,7.6-7.5s7.6,3.4,7.6,7.5-3.4,7.5-7.6,7.5-7.6-3.4-7.6-7.5Z"/>
</svg>