<?xml version="1.0" encoding="UTF-8"?>
<svg id="Layer_2" data-name="Layer 2" xmlns="http://www.w3.org/2000/svg" viewBox="0 0 51.45 46">
  <defs>
    <style>
      .cls-1 {
        fill: #00aeef;
      }
    </style>
  </defs>
  <g id="user">
    <g>
      <path class="cls-1" d="M26.26,25.3c4.25-2.26,7.15-6.73,7.15-11.86,0-7.41-6.03-13.43-13.43-13.43S6.55,6.03,6.55,13.43c0,5.14,2.9,9.61,7.15,11.86C5.98,27.97.34,35.42,0,44.44c-.02.41.14.8.42,1.1.28.29.67.46,1.08.46h36.96c.41,0,.8-.17,1.08-.46.28-.29.43-.69.42-1.1-.34-9.02-5.98-16.47-13.7-19.14ZM9.55,13.43c0-5.75,4.68-10.43,10.43-10.43s10.43,4.68,10.43,10.43-4.68,10.43-10.43,10.43-10.43-4.68-10.43-10.43ZM3.12,43c1.06-8.96,8.2-15.77,16.86-15.77s15.81,6.81,16.86,15.77H3.12Z"/>
      <path class="cls-1" d="M49.95,22.71h-5.04v-5.04c0-.83-.67-1.5-1.5-1.5s-1.5.67-1.5,1.5v5.04h-5.04c-.83,0-1.5.67-1.5,1.5s.67,1.5,1.5,1.5h5.04v5.04c0,.83.67,1.5,1.5,1.5s1.5-.67,1.5-1.5v-5.04h5.04c.83,0,1.5-.67,1.5-1.5s-.67-1.5-1.5-1.5Z"/>
    </g>
  </g>
</svg>