<?xml version="1.0" encoding="UTF-8"?>
<svg id="Layer_1" xmlns="http://www.w3.org/2000/svg" version="1.1" xmlns:serif="http://www.serif.com/" viewBox="0 0 32 22">
  <!-- Generator: Adobe Illustrator 29.3.1, SVG Export Plug-In . SVG Version: 2.1.0 Build 151)  -->
  <defs>
    <style>
      .st0 {
        fill: #00aeef;
      }
    </style>
  </defs>
  <path class="st0" d="M29.7,0H2.3C1,0,0,1,0,2.3v17.3c0,1.3,1,2.3,2.3,2.3h27.4c1.3,0,2.3-1,2.3-2.3V2.3c0-1.3-1-2.3-2.3-2.3ZM2.3,1.1h27.4c.6,0,1.2.5,1.2,1.2v2.3H9.5c-.3,0-.6.3-.6.6s.3.6.6.6h21.3v2.5H1.1v-2.5h5.8c.3,0,.6-.3.6-.6s-.3-.6-.6-.6H1.1v-2.3c0-.7.5-1.2,1.2-1.2ZM29.7,20.9H2.3c-.6,0-1.2-.5-1.2-1.2v-10.2h29.7v10.2c0,.7-.5,1.2-1.2,1.2Z"/>
  <path class="st0" d="M9.6,11.9c-.6,0-1.1.1-1.6.4-.5-.2-1-.4-1.6-.4-1.9,0-3.5,1.6-3.5,3.5s1.6,3.5,3.5,3.5,1.1-.1,1.6-.4c.5.3,1,.4,1.6.4,1.9,0,3.5-1.6,3.5-3.5s-1.6-3.5-3.5-3.5ZM4,15.4c0-1.3,1.1-2.4,2.3-2.4s2.3,1.1,2.3,2.4-1.1,2.4-2.3,2.4-2.3-1.1-2.3-2.4ZM9.6,17.8c-.2,0-.3,0-.5,0,.5-.6.9-1.4.9-2.3s-.3-1.7-.9-2.3c.2,0,.3,0,.5,0,1.3,0,2.3,1.1,2.3,2.4s-1.1,2.4-2.3,2.4Z"/>
  <path class="st0" d="M28.3,15.6h-4.4c-.3,0-.6.3-.6.6s.3.6.6.6h4.4c.3,0,.6-.3.6-.6s-.3-.6-.6-.6Z"/>
  <path class="st0" d="M21.3,15.6h-4.4c-.3,0-.6.3-.6.6s.3.6.6.6h4.4c.3,0,.6-.3.6-.6s-.3-.6-.6-.6Z"/>
</svg>