<?xml version="1.0" standalone="no"?>
<!DOCTYPE svg PUBLIC "-//W3C//DTD SVG 1.1//EN" "http://www.w3.org/Graphics/SVG/1.1/DTD/svg11.dtd">
<!--Generator: Xara Designer (www.xara.com), SVG filter version: 6.7.0.0-->
<svg fill="none" fill-rule="evenodd" stroke="black" stroke-width="0.501" stroke-linejoin="bevel" stroke-miterlimit="10" font-family="Times New Roman" font-size="16" style="font-variant-ligatures:none" xmlns:xlink="http://www.w3.org/1999/xlink" xmlns="http://www.w3.org/2000/svg" version="1.1" overflow="visible" width="424.96pt" height="72.24pt" viewBox="288.27 -514.114 424.96 72.24">
 <defs>
	</defs>
 <g id="Page background" transform="scale(1 -1)"/>
 <g id="MouseOff" transform="scale(1 -1)">
  <g id="Group" fill-rule="nonzero" stroke-linejoin="miter" stroke="none" stroke-width="2.007">
   <g id="Group_1">
    <g id="Group_2" fill="#024993">
     <path d="M 381.363,452.629 C 384.915,452.669 387.203,453.251 388.266,454.374 C 389.33,455.518 389.852,457.204 389.852,459.491 L 389.852,500.448 C 389.852,502.756 389.25,504.281 388.066,505.003 C 386.862,505.746 384.735,506.227 381.684,506.468 L 381.684,508.675 L 404.942,508.675 L 423.122,468.682 L 423.885,468.722 L 441.985,508.695 L 465.183,508.695 L 465.183,506.488 C 462.072,506.247 459.945,505.705 458.821,504.863 C 457.678,504.02 457.116,501.973 457.116,498.662 L 457.116,460.455 C 457.116,457.284 457.678,455.217 458.821,454.254 C 459.945,453.271 462.072,452.729 465.183,452.649 L 465.183,450.441 L 434.561,450.441 L 434.561,452.649 C 437.31,452.709 439.377,453.11 440.761,453.893 C 442.146,454.655 442.848,456.321 442.848,458.889 L 442.848,501.07 L 442.166,501.07 L 419.51,450.401 L 416.962,450.401 L 394.146,500.047 L 393.745,500.107 L 393.745,461.057 C 393.745,458.187 394.306,456.08 395.47,454.776 C 396.614,453.451 399.163,452.749 403.076,452.629 L 403.076,450.421 L 381.363,450.421 L 381.363,452.629 Z" marker-start="none" marker-end="none"/>
     <path d="M 464.4,470.247 C 464.4,462.923 466.527,457.585 470.801,454.254 C 475.056,450.923 479.651,449.257 484.527,449.257 C 487.918,449.257 490.929,449.799 493.537,450.883 C 497.571,452.568 501.143,455.619 504.173,459.993 L 501.925,461.217 C 500.059,459.411 498.494,458.107 497.209,457.364 C 495.143,456.12 492.955,455.498 490.607,455.498 C 485.731,455.498 482.32,457.866 480.373,462.582 C 479.29,465.09 478.648,468.08 478.427,471.532 L 503.711,471.532 C 503.711,472.314 503.591,473.458 503.37,474.943 C 502.929,478.134 502.126,480.722 500.962,482.729 C 499.417,485.378 497.189,487.445 494.32,488.93 C 491.45,490.414 488.38,491.157 485.109,491.157 C 479.39,491.157 474.494,489.331 470.44,485.659 C 466.387,481.986 464.36,476.849 464.36,470.267 M 478.226,474.802 C 478.347,479.237 478.908,482.608 479.852,484.936 C 480.815,487.264 482.581,488.428 485.189,488.428 C 487.798,488.428 489.403,487.425 490.246,485.398 C 491.089,483.371 491.551,479.859 491.611,474.823 L 478.226,474.823 Z" marker-start="none" marker-end="none"/>
     <path d="M 673.437,470.247 C 673.437,462.923 675.564,457.585 679.838,454.254 C 684.092,450.923 688.668,449.257 693.564,449.257 C 696.955,449.257 699.965,449.799 702.594,450.883 C 706.648,452.568 710.199,455.598 713.23,459.993 L 710.982,461.217 C 709.096,459.411 707.551,458.107 706.286,457.364 C 704.22,456.12 702.012,455.498 699.684,455.498 C 694.808,455.498 691.397,457.866 689.45,462.582 C 688.387,465.09 687.725,468.08 687.504,471.532 L 712.788,471.532 C 712.788,472.314 712.668,473.458 712.467,474.943 C 712.005,478.134 711.223,480.722 710.059,482.729 C 708.494,485.378 706.286,487.445 703.417,488.93 C 700.547,490.414 697.477,491.157 694.206,491.157 C 688.487,491.157 683.591,489.331 679.537,485.659 C 675.484,481.986 673.457,476.849 673.457,470.247 M 687.283,474.802 C 687.403,479.237 687.945,482.608 688.908,484.936 C 689.872,487.264 691.638,488.428 694.226,488.428 C 696.815,488.428 698.44,487.425 699.283,485.398 C 700.126,483.371 700.587,479.859 700.648,474.823 L 687.263,474.823 Z" marker-start="none" marker-end="none"/>
     <path d="M 508.668,469.124 C 508.668,463.003 510.333,458.167 513.664,454.595 C 516.995,451.043 520.929,449.257 525.444,449.257 C 528.092,449.257 530.561,449.899 532.828,451.164 C 534.273,451.986 535.858,453.231 537.604,454.936 L 537.604,449.257 C 541.397,450.221 544.066,450.802 545.571,451.043 C 547.076,451.284 550.427,451.645 555.624,452.107 L 555.624,454.214 C 553.517,454.394 552.112,454.816 551.39,455.478 C 550.668,456.14 550.306,457.344 550.306,459.07 L 550.306,508.675 L 530.38,508.675 L 530.38,506.568 C 533.189,506.448 535.056,506.127 535.959,505.625 C 536.862,505.124 537.303,503.779 537.303,501.612 L 537.303,485.899 C 535.537,487.625 534.052,488.829 532.888,489.511 C 531.002,490.615 528.835,491.177 526.387,491.177 C 521.51,491.177 517.337,489.21 513.865,485.277 C 510.393,481.344 508.648,475.966 508.648,469.144 M 529.617,454.114 C 526.467,454.114 524.34,456.14 523.216,460.214 C 522.614,462.461 522.313,465.812 522.313,470.267 C 522.313,474.421 522.634,477.652 523.256,479.92 C 524.42,484.174 526.648,486.301 529.918,486.301 C 532.146,486.301 533.932,485.598 535.276,484.234 C 536.621,482.849 537.303,481.806 537.303,481.124 L 537.303,460.134 C 537.303,459.431 536.52,458.267 534.935,456.602 C 533.35,454.956 531.584,454.113 529.597,454.113"/>
     <path d="M 560.38,452.629 C 562.888,452.689 564.654,452.99 565.738,453.532 C 567.544,454.435 568.467,456.16 568.467,458.669 L 568.467,500.448 C 568.467,502.936 567.604,504.602 565.878,505.485 C 564.855,505.986 563.029,506.328 560.38,506.468 L 560.38,508.675 L 592.688,508.675 L 592.688,506.468 C 588.915,506.348 586.387,505.866 585.122,505.003 C 583.858,504.16 583.236,502.033 583.236,498.662 L 583.236,457.866 C 583.236,455.96 583.758,454.695 584.842,454.093 C 585.905,453.491 587.992,453.19 591.082,453.19 C 596.641,453.19 601.296,454.334 605.069,456.622 C 608.842,458.909 612.092,463.364 614.821,469.966 L 617.551,469.966 L 613.778,450.441 L 560.38,450.441 L 560.38,452.649 Z" marker-start="none" marker-end="none"/>
     <path d="M 619.096,452.528 C 620.701,452.729 621.785,453.11 622.387,453.612 C 623.27,454.354 623.711,455.719 623.711,457.685 L 623.711,483.01 C 623.711,484.736 623.41,485.92 622.788,486.562 C 622.166,487.204 620.942,487.665 619.096,487.966 L 619.096,490.073 L 636.714,490.073 L 636.714,457.364 C 636.714,455.478 637.015,454.294 637.618,453.752 C 638.219,453.231 639.363,452.809 641.009,452.508 L 641.009,450.401 L 619.076,450.401 L 619.076,452.508 Z M 625.176,507.873 C 626.561,509.177 628.266,509.819 630.233,509.819 C 632.199,509.819 633.845,509.177 635.25,507.873 C 636.654,506.568 637.357,504.983 637.357,503.097 C 637.357,501.21 636.654,499.685 635.25,498.381 C 633.845,497.077 632.179,496.435 630.233,496.435 C 628.286,496.435 626.561,497.077 625.176,498.381 C 623.791,499.685 623.089,501.251 623.089,503.097 C 623.089,504.943 623.791,506.568 625.176,507.873"/>
     <path d="M 645.283,452.528 C 647.189,452.649 648.554,453.03 649.377,453.672 C 650.199,454.314 650.621,455.659 650.621,457.705 L 650.621,485.679 L 645.303,485.679 L 645.303,489.491 L 650.621,489.491 L 650.621,492.682 C 650.621,496.695 651.303,500.006 652.648,502.615 C 655.196,507.451 659.932,509.859 666.835,509.859 C 670.507,509.859 673.618,509.077 676.166,507.511 C 678.715,505.946 679.999,503.879 679.999,501.331 C 679.999,499.705 679.457,498.401 678.393,497.418 C 677.33,496.435 675.905,495.933 674.139,495.933 C 672.654,495.933 671.39,496.394 670.347,497.297 C 669.283,498.2 668.761,499.284 668.761,500.528 C 668.761,501.491 669.082,502.515 669.785,503.558 C 670.467,504.602 670.808,505.244 670.808,505.485 C 670.808,506.187 670.527,506.629 669.985,506.829 C 669.444,507.03 668.862,507.13 668.24,507.13 C 666.735,507.13 665.571,506.729 664.768,505.906 C 663.965,505.083 663.564,503.338 663.564,500.629 L 663.564,489.511 L 671.591,489.511 L 671.591,485.699 L 663.564,485.699 L 663.564,459.271 C 663.564,456.321 664.026,454.515 664.929,453.853 C 665.852,453.17 667.878,452.749 671.049,452.568 L 671.049,450.461 L 645.303,450.461 L 645.303,452.568 Z" marker-start="none" marker-end="none"/>
    </g>
    <g id="Group_3">
     <path d="M 346.688,514.114 C 339.183,514.114 332.561,510.602 328.567,505.224 C 324.574,510.602 317.952,514.114 310.447,514.114 C 298.266,514.114 288.373,504.843 288.373,493.404 C 288.373,474.682 328.567,441.874 328.567,441.874 C 328.567,441.874 368.761,474.02 368.761,493.404 C 368.761,504.843 358.868,514.114 346.688,514.114" fill="#009fe3"/>
     <rect x="335.449" y="487.447" width="11.237" height="11.296" fill="#ffdd00"/>
     <path d="M 346.688,514.114 C 342.574,514.114 338.741,513.05 335.45,511.224 L 335.45,498.742 L 368.019,498.742 C 365.49,507.632 356.882,514.114 346.688,514.114" fill="#024993"/>
     <path d="M 346.688,458.328 C 357.343,469.103 368.761,482.99 368.761,493.324 C 368.761,495.19 368.52,497.017 368.019,498.742 L 346.688,498.742 L 346.688,458.348 Z" fill="#e52322" marker-start="none" marker-end="none"/>
     <path d="M 346.688,473.598 L 335.47,473.598 L 335.47,462.301 L 321.704,462.301 L 321.704,473.598 L 310.467,473.598 L 310.467,487.445 L 321.704,487.445 L 321.704,498.742 L 335.47,498.742 L 335.47,487.445 L 346.688,487.445 L 346.688,473.598 Z" fill="#ffffff" marker-start="none" marker-end="none"/>
    </g>
   </g>
  </g>
 </g>
</svg>
